# Original Kimchily Chili Island mesh
mtllib ChiliIsland.mtl
o Carved_cliff_0
usemtl Rock
v -8.36 -4.6 3
v -10.34 -2.8 3
v -10.73292 -2.8 5.163545
v -8.36 -4.6 3
v -10.73292 -2.8 5.163545
v -8.677681 -4.6 4.749249
v -8.677681 -4.6 4.749249
v -10.73292 -2.8 5.163545
v -10.0516 -2.8 7.156681
v -8.677681 -4.6 4.749249
v -10.0516 -2.8 7.156681
v -8.126826 -4.6 6.36072
v -8.126826 -4.6 6.36072
v -10.0516 -2.8 7.156681
v -8.998387 -2.8 8.835337
v -8.126826 -4.6 6.36072
v -8.998387 -2.8 8.835337
v -7.275292 -4.6 7.717932
v -7.275292 -4.6 7.717932
v -8.998387 -2.8 8.835337
v -8.185122 -2.8 10.5687
v -7.275292 -4.6 7.717932
v -8.185122 -2.8 10.5687
v -6.617758 -4.6 9.119377
v -6.617758 -4.6 9.119377
v -8.185122 -2.8 10.5687
v -7.233934 -2.8 12.20683
v -6.617758 -4.6 9.119377
v -7.233934 -2.8 12.20683
v -5.848712 -4.6 10.44382
v -5.848712 -4.6 10.44382
v -7.233934 -2.8 12.20683
v -6.045094 -2.8 13.58955
v -5.848712 -4.6 10.44382
v -6.045094 -2.8 13.58955
v -4.887523 -4.6 11.56176
v -4.887523 -4.6 11.56176
v -6.045094 -2.8 13.58955
v -4.813915 -2.8 15.02452
v -4.887523 -4.6 11.56176
v -4.813915 -2.8 15.02452
v -3.892102 -4.6 12.72196
v -3.892102 -4.6 12.72196
v -4.813915 -2.8 15.02452
v -3.321746 -2.8 16.01145
v -3.892102 -4.6 12.72196
v -3.321746 -2.8 16.01145
v -2.685667 -4.6 13.5199
v -2.685667 -4.6 13.5199
v -3.321746 -2.8 16.01145
v -1.59689 -2.8 15.83211
v -2.685667 -4.6 13.5199
v -1.59689 -2.8 15.83211
v -1.291103 -4.6 13.3749
v -1.291103 -4.6 13.3749
v -1.59689 -2.8 15.83211
v 0 -2.8 15.4362
v -1.291103 -4.6 13.3749
v 0 -2.8 15.4362
v 0 -4.6 13.0548
v 0 -4.6 13.0548
v 0 -2.8 15.4362
v 1.596891 -2.8 15.83211
v 0 -4.6 13.0548
v 1.596891 -2.8 15.83211
v 1.291103 -4.6 13.3749
v 1.291103 -4.6 13.3749
v 1.596891 -2.8 15.83211
v 3.321747 -2.8 16.01145
v 1.291103 -4.6 13.3749
v 3.321747 -2.8 16.01145
v 2.685668 -4.6 13.5199
v 2.685668 -4.6 13.5199
v 3.321747 -2.8 16.01145
v 4.813916 -2.8 15.02452
v 2.685668 -4.6 13.5199
v 4.813916 -2.8 15.02452
v 3.892102 -4.6 12.72195
v 3.892102 -4.6 12.72195
v 4.813916 -2.8 15.02452
v 6.045094 -2.8 13.58955
v 3.892102 -4.6 12.72195
v 6.045094 -2.8 13.58955
v 4.887522 -4.6 11.56176
v 4.887522 -4.6 11.56176
v 6.045094 -2.8 13.58955
v 7.233934 -2.8 12.20683
v 4.887522 -4.6 11.56176
v 7.233934 -2.8 12.20683
v 5.848712 -4.6 10.44382
v 5.848712 -4.6 10.44382
v 7.233934 -2.8 12.20683
v 8.185122 -2.8 10.5687
v 5.848712 -4.6 10.44382
v 8.185122 -2.8 10.5687
v 6.617758 -4.6 9.119377
v 6.617758 -4.6 9.119377
v 8.185122 -2.8 10.5687
v 8.998388 -2.8 8.835336
v 6.617758 -4.6 9.119377
v 8.998388 -2.8 8.835336
v 7.275293 -4.6 7.717931
v 7.275293 -4.6 7.717931
v 8.998388 -2.8 8.835336
v 10.0516 -2.8 7.156678
v 7.275293 -4.6 7.717931
v 10.0516 -2.8 7.156678
v 8.126827 -4.6 6.360718
v 8.126827 -4.6 6.360718
v 10.0516 -2.8 7.156678
v 10.73292 -2.8 5.163544
v 8.126827 -4.6 6.360718
v 10.73292 -2.8 5.163544
v 8.677681 -4.6 4.749249
v 8.677681 -4.6 4.749249
v 10.73292 -2.8 5.163544
v 10.34 -2.8 2.999999
v 8.677681 -4.6 4.749249
v 10.34 -2.8 2.999999
v 8.359999 -4.6 2.999999
v 8.359999 -4.6 2.999999
v 10.34 -2.8 2.999999
v 9.692472 -2.8 1.046188
v 8.359999 -4.6 2.999999
v 9.692472 -2.8 1.046188
v 7.836467 -4.6 1.420322
v 7.836467 -4.6 1.420322
v 9.692472 -2.8 1.046188
v 9.616248 -2.8 -0.976647
v 7.836467 -4.6 1.420322
v 9.616248 -2.8 -0.976647
v 7.774839 -4.6 -0.215161
v 7.774839 -4.6 -0.215161
v 9.616248 -2.8 -0.976647
v 9.427629 -2.8 -3.113694
v 7.774839 -4.6 -0.215161
v 9.427629 -2.8 -3.113694
v 7.622338 -4.6 -1.942987
v 7.622338 -4.6 -1.942987
v 9.427629 -2.8 -3.113694
v 8.545349 -2.8 -4.901805
v 7.622338 -4.6 -1.942987
v 8.545349 -2.8 -4.901805
v 6.909006 -4.6 -3.388693
v 6.909006 -4.6 -3.388693
v 8.545349 -2.8 -4.901805
v 7.389032 -2.8 -6.404226
v 6.909006 -4.6 -3.388693
v 7.389032 -2.8 -6.404226
v 5.974111 -4.6 -4.603416
v 5.974111 -4.6 -4.603416
v 7.389032 -2.8 -6.404226
v 6.110302 -2.8 -7.703781
v 5.974111 -4.6 -4.603416
v 6.110302 -2.8 -7.703781
v 4.940244 -4.6 -5.654121
v 4.940244 -4.6 -5.654121
v 6.110302 -2.8 -7.703781
v 4.574605 -2.8 -8.426768
v 4.940244 -4.6 -5.654121
v 4.574605 -2.8 -8.426768
v 3.698617 -4.6 -6.238664
v 3.698617 -4.6 -6.238664
v 4.574605 -2.8 -8.426768
v 3.068726 -2.8 -9.020353
v 3.698617 -4.6 -6.238664
v 3.068726 -2.8 -9.020353
v 2.481097 -4.6 -6.718583
v 2.481097 -4.6 -6.718583
v 3.068726 -2.8 -9.020353
v 1.638174 -2.8 -10.16385
v 2.481097 -4.6 -6.718583
v 1.638174 -2.8 -10.16385
v 1.324481 -4.6 -7.643109
v 1.324481 -4.6 -7.643109
v 1.638174 -2.8 -10.16385
v 0 -2.8 -10.8838
v 1.324481 -4.6 -7.643109
v 0 -2.8 -10.8838
v 0 -4.6 -8.2252
v 0 -4.6 -8.2252
v 0 -2.8 -10.8838
v -1.638174 -2.8 -10.16385
v 0 -4.6 -8.2252
v -1.638174 -2.8 -10.16385
v -1.324481 -4.6 -7.643109
v -1.324481 -4.6 -7.643109
v -1.638174 -2.8 -10.16385
v -3.068726 -2.8 -9.020354
v -1.324481 -4.6 -7.643109
v -3.068726 -2.8 -9.020354
v -2.481098 -4.6 -6.718584
v -2.481098 -4.6 -6.718584
v -3.068726 -2.8 -9.020354
v -4.57461 -2.8 -8.426767
v -2.481098 -4.6 -6.718584
v -4.57461 -2.8 -8.426767
v -3.698621 -4.6 -6.238663
v -3.698621 -4.6 -6.238663
v -4.57461 -2.8 -8.426767
v -6.110307 -2.8 -7.703778
v -3.698621 -4.6 -6.238663
v -6.110307 -2.8 -7.703778
v -4.940248 -4.6 -5.654119
v -4.940248 -4.6 -5.654119
v -6.110307 -2.8 -7.703778
v -7.389037 -2.8 -6.404222
v -4.940248 -4.6 -5.654119
v -7.389037 -2.8 -6.404222
v -5.974115 -4.6 -4.603414
v -5.974115 -4.6 -4.603414
v -7.389037 -2.8 -6.404222
v -8.545353 -2.8 -4.9018
v -5.974115 -4.6 -4.603414
v -8.545353 -2.8 -4.9018
v -6.909009 -4.6 -3.38869
v -6.909009 -4.6 -3.38869
v -8.545353 -2.8 -4.9018
v -9.427629 -2.8 -3.113694
v -6.909009 -4.6 -3.38869
v -9.427629 -2.8 -3.113694
v -7.622338 -4.6 -1.942987
v -7.622338 -4.6 -1.942987
v -9.427629 -2.8 -3.113694
v -9.616247 -2.8 -0.976646
v -7.622338 -4.6 -1.942987
v -9.616247 -2.8 -0.976646
v -7.774838 -4.6 -0.215161
v -7.774838 -4.6 -0.215161
v -9.616247 -2.8 -0.976646
v -9.692473 -2.8 1.046191
v -7.774838 -4.6 -0.215161
v -9.692473 -2.8 1.046191
v -7.836468 -4.6 1.420324
v -7.836468 -4.6 1.420324
v -9.692473 -2.8 1.046191
v -10.34 -2.8 3.000002
v -7.836468 -4.6 1.420324
v -10.34 -2.8 3.000002
v -8.360002 -4.6 3.000002
vn -0.667709 -0.73448 -0.121263
vn -0.667709 -0.73448 -0.121263
vn -0.667709 -0.73448 -0.121263
vn -0.667709 -0.73448 -0.121263
vn -0.667709 -0.73448 -0.121263
vn -0.667709 -0.73448 -0.121263
vn -0.61941 -0.755976 0.211735
vn -0.61941 -0.755976 0.211735
vn -0.61941 -0.755976 0.211735
vn -0.61941 -0.755976 0.211735
vn -0.61941 -0.755976 0.211735
vn -0.61941 -0.755976 0.211735
vn -0.55837 -0.751992 0.35033
vn -0.55837 -0.751992 0.35033
vn -0.55837 -0.751992 0.35033
vn -0.55837 -0.751992 0.35033
vn -0.55837 -0.751992 0.35033
vn -0.55837 -0.751992 0.35033
vn -0.599871 -0.74896 0.281449
vn -0.599871 -0.74896 0.281449
vn -0.599871 -0.74896 0.281449
vn -0.599871 -0.74896 0.281449
vn -0.599871 -0.74896 0.281449
vn -0.599871 -0.74896 0.281449
vn -0.565397 -0.756666 0.328302
vn -0.565397 -0.756666 0.328302
vn -0.565397 -0.756666 0.328302
vn -0.565397 -0.756666 0.328302
vn -0.565397 -0.756666 0.328302
vn -0.565397 -0.756666 0.328302
vn -0.480196 -0.773922 0.412864
vn -0.480196 -0.773922 0.412864
vn -0.480196 -0.773922 0.412864
vn -0.480196 -0.773922 0.412864
vn -0.480196 -0.773922 0.412864
vn -0.480196 -0.773922 0.412864
vn -0.48073 -0.773807 0.412457
vn -0.48073 -0.773807 0.412457
vn -0.48073 -0.773807 0.412457
vn -0.48073 -0.773807 0.412457
vn -0.48073 -0.773807 0.412457
vn -0.48073 -0.773807 0.412457
vn -0.328447 -0.803443 0.496589
vn -0.328447 -0.803443 0.496589
vn -0.328447 -0.803443 0.496589
vn -0.328447 -0.803444 0.496589
vn -0.328447 -0.803444 0.496589
vn -0.328447 -0.803444 0.496589
vn 0.061846 -0.801482 0.594812
vn 0.061846 -0.801482 0.594812
vn 0.061846 -0.801482 0.594812
vn 0.061845 -0.801482 0.594812
vn 0.061845 -0.801482 0.594812
vn 0.061845 -0.801482 0.594812
vn 0.147853 -0.788983 0.596359
vn 0.147853 -0.788983 0.596359
vn 0.147853 -0.788983 0.596359
vn 0.147853 -0.788984 0.596359
vn 0.147853 -0.788984 0.596359
vn 0.147853 -0.788984 0.596359
vn -0.147853 -0.788984 0.596359
vn -0.147853 -0.788984 0.596359
vn -0.147853 -0.788984 0.596359
vn -0.147853 -0.788983 0.596359
vn -0.147853 -0.788983 0.596359
vn -0.147853 -0.788983 0.596359
vn -0.061845 -0.801482 0.594812
vn -0.061845 -0.801482 0.594812
vn -0.061845 -0.801482 0.594812
vn -0.061845 -0.801482 0.594812
vn -0.061845 -0.801482 0.594812
vn -0.061845 -0.801482 0.594812
vn 0.328447 -0.803443 0.49659
vn 0.328447 -0.803443 0.49659
vn 0.328447 -0.803443 0.49659
vn 0.328447 -0.803444 0.496589
vn 0.328447 -0.803444 0.496589
vn 0.328447 -0.803444 0.496589
vn 0.480731 -0.773807 0.412457
vn 0.480731 -0.773807 0.412457
vn 0.480731 -0.773807 0.412457
vn 0.480731 -0.773807 0.412456
vn 0.480731 -0.773807 0.412456
vn 0.480731 -0.773807 0.412456
vn 0.480196 -0.773922 0.412864
vn 0.480196 -0.773922 0.412864
vn 0.480196 -0.773922 0.412864
vn 0.480196 -0.773922 0.412864
vn 0.480196 -0.773922 0.412864
vn 0.480196 -0.773922 0.412864
vn 0.565397 -0.756666 0.328302
vn 0.565397 -0.756666 0.328302
vn 0.565397 -0.756666 0.328302
vn 0.565397 -0.756666 0.328302
vn 0.565397 -0.756666 0.328302
vn 0.565397 -0.756666 0.328302
vn 0.599871 -0.74896 0.281449
vn 0.599871 -0.74896 0.281449
vn 0.599871 -0.74896 0.281449
vn 0.599871 -0.74896 0.281449
vn 0.599871 -0.74896 0.281449
vn 0.599871 -0.74896 0.281449
vn 0.558371 -0.751992 0.350329
vn 0.558371 -0.751992 0.350329
vn 0.558371 -0.751992 0.350329
vn 0.558371 -0.751992 0.35033
vn 0.558371 -0.751992 0.35033
vn 0.558371 -0.751992 0.35033
vn 0.61941 -0.755976 0.211735
vn 0.61941 -0.755976 0.211735
vn 0.61941 -0.755976 0.211735
vn 0.61941 -0.755976 0.211735
vn 0.61941 -0.755976 0.211735
vn 0.61941 -0.755976 0.211735
vn 0.667709 -0.73448 -0.121263
vn 0.667709 -0.73448 -0.121263
vn 0.667709 -0.73448 -0.121263
vn 0.667709 -0.73448 -0.121263
vn 0.667709 -0.73448 -0.121263
vn 0.667709 -0.73448 -0.121263
vn 0.656555 -0.722211 -0.217594
vn 0.656555 -0.722211 -0.217594
vn 0.656555 -0.722211 -0.217594
vn 0.656555 -0.722211 -0.217594
vn 0.656555 -0.722211 -0.217594
vn 0.656555 -0.722211 -0.217594
vn 0.693237 -0.720236 -0.026123
vn 0.693237 -0.720236 -0.026123
vn 0.693237 -0.720236 -0.026123
vn 0.693237 -0.720236 -0.026122
vn 0.693237 -0.720236 -0.026122
vn 0.693237 -0.720236 -0.026122
vn 0.684848 -0.726175 -0.060446
vn 0.684848 -0.726175 -0.060446
vn 0.684848 -0.726175 -0.060446
vn 0.684848 -0.726175 -0.060446
vn 0.684848 -0.726175 -0.060446
vn 0.684848 -0.726175 -0.060446
vn 0.577731 -0.764831 -0.285061
vn 0.577731 -0.764831 -0.285061
vn 0.577731 -0.764831 -0.285061
vn 0.577731 -0.764831 -0.285061
vn 0.577731 -0.764831 -0.285061
vn 0.577731 -0.764831 -0.285061
vn 0.499151 -0.776703 -0.384164
vn 0.499151 -0.776703 -0.384164
vn 0.499151 -0.776703 -0.384164
vn 0.49915 -0.776703 -0.384164
vn 0.49915 -0.776703 -0.384164
vn 0.49915 -0.776703 -0.384164
vn 0.442685 -0.783767 -0.435591
vn 0.442685 -0.783767 -0.435591
vn 0.442685 -0.783767 -0.435591
vn 0.442685 -0.783767 -0.435591
vn 0.442685 -0.783767 -0.435591
vn 0.442685 -0.783767 -0.435591
vn 0.258812 -0.794229 -0.549743
vn 0.258812 -0.794229 -0.549743
vn 0.258812 -0.794229 -0.549743
vn 0.258812 -0.794229 -0.549743
vn 0.258812 -0.794229 -0.549743
vn 0.258812 -0.794229 -0.549743
vn 0.22258 -0.794738 -0.564668
vn 0.22258 -0.794738 -0.564668
vn 0.22258 -0.794738 -0.564668
vn 0.22258 -0.794738 -0.564668
vn 0.22258 -0.794738 -0.564668
vn 0.22258 -0.794738 -0.564668
vn 0.399187 -0.768929 -0.499398
vn 0.399187 -0.768929 -0.499398
vn 0.399187 -0.768929 -0.499398
vn 0.399187 -0.768929 -0.499398
vn 0.399187 -0.768929 -0.499398
vn 0.399187 -0.768929 -0.499398
vn 0.239237 -0.804016 -0.544357
vn 0.239237 -0.804016 -0.544357
vn 0.239237 -0.804016 -0.544357
vn 0.239237 -0.804016 -0.544357
vn 0.239237 -0.804016 -0.544357
vn 0.239237 -0.804016 -0.544357
vn -0.239237 -0.804016 -0.544357
vn -0.239237 -0.804016 -0.544357
vn -0.239237 -0.804016 -0.544357
vn -0.239237 -0.804016 -0.544357
vn -0.239237 -0.804016 -0.544357
vn -0.239237 -0.804016 -0.544357
vn -0.399186 -0.768929 -0.499398
vn -0.399186 -0.768929 -0.499398
vn -0.399186 -0.768929 -0.499398
vn -0.399187 -0.768929 -0.499398
vn -0.399187 -0.768929 -0.499398
vn -0.399187 -0.768929 -0.499398
vn -0.22258 -0.794738 -0.564668
vn -0.22258 -0.794738 -0.564668
vn -0.22258 -0.794738 -0.564668
vn -0.22258 -0.794738 -0.564668
vn -0.22258 -0.794738 -0.564668
vn -0.22258 -0.794738 -0.564668
vn -0.258813 -0.794229 -0.549743
vn -0.258813 -0.794229 -0.549743
vn -0.258813 -0.794229 -0.549743
vn -0.258813 -0.794229 -0.549743
vn -0.258813 -0.794229 -0.549743
vn -0.258813 -0.794229 -0.549743
vn -0.442685 -0.783767 -0.435591
vn -0.442685 -0.783767 -0.435591
vn -0.442685 -0.783767 -0.435591
vn -0.442685 -0.783767 -0.435591
vn -0.442685 -0.783767 -0.435591
vn -0.442685 -0.783767 -0.435591
vn -0.499151 -0.776703 -0.384164
vn -0.499151 -0.776703 -0.384164
vn -0.499151 -0.776703 -0.384164
vn -0.499151 -0.776703 -0.384164
vn -0.499151 -0.776703 -0.384164
vn -0.499151 -0.776703 -0.384164
vn -0.577732 -0.764831 -0.285061
vn -0.577732 -0.764831 -0.285061
vn -0.577732 -0.764831 -0.285061
vn -0.577732 -0.764831 -0.28506
vn -0.577732 -0.764831 -0.28506
vn -0.577732 -0.764831 -0.28506
vn -0.684848 -0.726175 -0.060446
vn -0.684848 -0.726175 -0.060446
vn -0.684848 -0.726175 -0.060446
vn -0.684848 -0.726175 -0.060446
vn -0.684848 -0.726175 -0.060446
vn -0.684848 -0.726175 -0.060446
vn -0.693237 -0.720236 -0.026123
vn -0.693237 -0.720236 -0.026123
vn -0.693237 -0.720236 -0.026123
vn -0.693237 -0.720236 -0.026123
vn -0.693237 -0.720236 -0.026123
vn -0.693237 -0.720236 -0.026123
vn -0.656555 -0.722211 -0.217594
vn -0.656555 -0.722211 -0.217594
vn -0.656555 -0.722211 -0.217594
vn -0.656555 -0.722211 -0.217594
vn -0.656555 -0.722211 -0.217594
vn -0.656555 -0.722211 -0.217594
f 1//1 3//3 2//2
f 4//4 6//6 5//5
f 7//7 9//9 8//8
f 10//10 12//12 11//11
f 13//13 15//15 14//14
f 16//16 18//18 17//17
f 19//19 21//21 20//20
f 22//22 24//24 23//23
f 25//25 27//27 26//26
f 28//28 30//30 29//29
f 31//31 33//33 32//32
f 34//34 36//36 35//35
f 37//37 39//39 38//38
f 40//40 42//42 41//41
f 43//43 45//45 44//44
f 46//46 48//48 47//47
f 49//49 51//51 50//50
f 52//52 54//54 53//53
f 55//55 57//57 56//56
f 58//58 60//60 59//59
f 61//61 63//63 62//62
f 64//64 66//66 65//65
f 67//67 69//69 68//68
f 70//70 72//72 71//71
f 73//73 75//75 74//74
f 76//76 78//78 77//77
f 79//79 81//81 80//80
f 82//82 84//84 83//83
f 85//85 87//87 86//86
f 88//88 90//90 89//89
f 91//91 93//93 92//92
f 94//94 96//96 95//95
f 97//97 99//99 98//98
f 100//100 102//102 101//101
f 103//103 105//105 104//104
f 106//106 108//108 107//107
f 109//109 111//111 110//110
f 112//112 114//114 113//113
f 115//115 117//117 116//116
f 118//118 120//120 119//119
f 121//121 123//123 122//122
f 124//124 126//126 125//125
f 127//127 129//129 128//128
f 130//130 132//132 131//131
f 133//133 135//135 134//134
f 136//136 138//138 137//137
f 139//139 141//141 140//140
f 142//142 144//144 143//143
f 145//145 147//147 146//146
f 148//148 150//150 149//149
f 151//151 153//153 152//152
f 154//154 156//156 155//155
f 157//157 159//159 158//158
f 160//160 162//162 161//161
f 163//163 165//165 164//164
f 166//166 168//168 167//167
f 169//169 171//171 170//170
f 172//172 174//174 173//173
f 175//175 177//177 176//176
f 178//178 180//180 179//179
f 181//181 183//183 182//182
f 184//184 186//186 185//185
f 187//187 189//189 188//188
f 190//190 192//192 191//191
f 193//193 195//195 194//194
f 196//196 198//198 197//197
f 199//199 201//201 200//200
f 202//202 204//204 203//203
f 205//205 207//207 206//206
f 208//208 210//210 209//209
f 211//211 213//213 212//212
f 214//214 216//216 215//215
f 217//217 219//219 218//218
f 220//220 222//222 221//221
f 223//223 225//225 224//224
f 226//226 228//228 227//227
f 229//229 231//231 230//230
f 232//232 234//234 233//233
f 235//235 237//237 236//236
f 238//238 240//240 239//239
o Carved_cliff_1
usemtl RockLight
v -10.34 -2.8 3
v -11 -1.25 3
v -11.418 -1.25 5.301643
v -10.34 -2.8 3
v -11.418 -1.25 5.301643
v -10.73292 -2.8 5.163545
v -10.73292 -2.8 5.163545
v -11.418 -1.25 5.301643
v -10.69319 -1.25 7.422
v -10.73292 -2.8 5.163545
v -10.69319 -1.25 7.422
v -10.0516 -2.8 7.156681
v -10.0516 -2.8 7.156681
v -10.69319 -1.25 7.422
v -9.572753 -1.25 9.207806
v -10.0516 -2.8 7.156681
v -9.572753 -1.25 9.207806
v -8.998387 -2.8 8.835337
v -8.998387 -2.8 8.835337
v -9.572753 -1.25 9.207806
v -8.707576 -1.25 11.05181
v -8.998387 -2.8 8.835337
v -8.707576 -1.25 11.05181
v -8.185122 -2.8 10.5687
v -8.185122 -2.8 10.5687
v -8.707576 -1.25 11.05181
v -7.695674 -1.25 12.79449
v -8.185122 -2.8 10.5687
v -7.695674 -1.25 12.79449
v -7.233934 -2.8 12.20683
v -7.233934 -2.8 12.20683
v -7.695674 -1.25 12.79449
v -6.430952 -1.25 14.26548
v -7.233934 -2.8 12.20683
v -6.430952 -1.25 14.26548
v -6.045094 -2.8 13.58955
v -6.045094 -2.8 13.58955
v -6.430952 -1.25 14.26548
v -5.121186 -1.25 15.79205
v -6.045094 -2.8 13.58955
v -5.121186 -1.25 15.79205
v -4.813915 -2.8 15.02452
v -4.813915 -2.8 15.02452
v -5.121186 -1.25 15.79205
v -3.533773 -1.25 16.84197
v -4.813915 -2.8 15.02452
v -3.533773 -1.25 16.84197
v -3.321746 -2.8 16.01145
v -3.321746 -2.8 16.01145
v -3.533773 -1.25 16.84197
v -1.698819 -1.25 16.65118
v -3.321746 -2.8 16.01145
v -1.698819 -1.25 16.65118
v -1.59689 -2.8 15.83211
v -1.59689 -2.8 15.83211
v -1.698819 -1.25 16.65118
v 0 -1.25 16.23
v -1.59689 -2.8 15.83211
v 0 -1.25 16.23
v 0 -2.8 15.4362
v 0 -2.8 15.4362
v 0 -1.25 16.23
v 1.69882 -1.25 16.65118
v 0 -2.8 15.4362
v 1.69882 -1.25 16.65118
v 1.596891 -2.8 15.83211
v 1.596891 -2.8 15.83211
v 1.69882 -1.25 16.65118
v 3.533773 -1.25 16.84197
v 1.596891 -2.8 15.83211
v 3.533773 -1.25 16.84197
v 3.321747 -2.8 16.01145
v 3.321747 -2.8 16.01145
v 3.533773 -1.25 16.84197
v 5.121187 -1.25 15.79205
v 3.321747 -2.8 16.01145
v 5.121187 -1.25 15.79205
v 4.813916 -2.8 15.02452
v 4.813916 -2.8 15.02452
v 5.121187 -1.25 15.79205
v 6.43095 -1.25 14.26548
v 4.813916 -2.8 15.02452
v 6.43095 -1.25 14.26548
v 6.045094 -2.8 13.58955
v 6.045094 -2.8 13.58955
v 6.43095 -1.25 14.26548
v 7.695674 -1.25 12.79449
v 6.045094 -2.8 13.58955
v 7.695674 -1.25 12.79449
v 7.233934 -2.8 12.20683
v 7.233934 -2.8 12.20683
v 7.695674 -1.25 12.79449
v 8.707577 -1.25 11.05181
v 7.233934 -2.8 12.20683
v 8.707577 -1.25 11.05181
v 8.185122 -2.8 10.5687
v 8.185122 -2.8 10.5687
v 8.707577 -1.25 11.05181
v 9.572754 -1.25 9.207804
v 8.185122 -2.8 10.5687
v 9.572754 -1.25 9.207804
v 8.998388 -2.8 8.835336
v 8.998388 -2.8 8.835336
v 9.572754 -1.25 9.207804
v 10.69319 -1.25 7.421998
v 8.998388 -2.8 8.835336
v 10.69319 -1.25 7.421998
v 10.0516 -2.8 7.156678
v 10.0516 -2.8 7.156678
v 10.69319 -1.25 7.421998
v 11.418 -1.25 5.301643
v 10.0516 -2.8 7.156678
v 11.418 -1.25 5.301643
v 10.73292 -2.8 5.163544
v 10.73292 -2.8 5.163544
v 11.418 -1.25 5.301643
v 11 -1.25 2.999999
v 10.73292 -2.8 5.163544
v 11 -1.25 2.999999
v 10.34 -2.8 2.999999
v 10.34 -2.8 2.999999
v 11 -1.25 2.999999
v 10.31114 -1.25 0.921476
v 10.34 -2.8 2.999999
v 10.31114 -1.25 0.921476
v 9.692472 -2.8 1.046188
v 9.692472 -2.8 1.046188
v 10.31114 -1.25 0.921476
v 10.23005 -1.25 -1.230475
v 9.692472 -2.8 1.046188
v 10.23005 -1.25 -1.230475
v 9.616248 -2.8 -0.976647
v 9.616248 -2.8 -0.976647
v 10.23005 -1.25 -1.230475
v 10.02939 -1.25 -3.50393
v 9.616248 -2.8 -0.976647
v 10.02939 -1.25 -3.50393
v 9.427629 -2.8 -3.113694
v 9.427629 -2.8 -3.113694
v 10.02939 -1.25 -3.50393
v 9.090796 -1.25 -5.406176
v 9.427629 -2.8 -3.113694
v 9.090796 -1.25 -5.406176
v 8.545349 -2.8 -4.901805
v 8.545349 -2.8 -4.901805
v 9.090796 -1.25 -5.406176
v 7.860672 -1.25 -7.004496
v 8.545349 -2.8 -4.901805
v 7.860672 -1.25 -7.004496
v 7.389032 -2.8 -6.404226
v 7.389032 -2.8 -6.404226
v 7.860672 -1.25 -7.004496
v 6.500322 -1.25 -8.387001
v 7.389032 -2.8 -6.404226
v 6.500322 -1.25 -8.387001
v 6.110302 -2.8 -7.703781
v 6.110302 -2.8 -7.703781
v 6.500322 -1.25 -8.387001
v 4.866601 -1.25 -9.156137
v 6.110302 -2.8 -7.703781
v 4.866601 -1.25 -9.156137
v 4.574605 -2.8 -8.426768
v 4.574605 -2.8 -8.426768
v 4.866601 -1.25 -9.156137
v 3.264602 -1.25 -9.78761
v 4.574605 -2.8 -8.426768
v 3.264602 -1.25 -9.78761
v 3.068726 -2.8 -9.020353
v 3.068726 -2.8 -9.020353
v 3.264602 -1.25 -9.78761
v 1.742739 -1.25 -11.00409
v 3.068726 -2.8 -9.020353
v 1.742739 -1.25 -11.00409
v 1.638174 -2.8 -10.16385
v 1.638174 -2.8 -10.16385
v 1.742739 -1.25 -11.00409
v 0 -1.25 -11.77
v 1.638174 -2.8 -10.16385
v 0 -1.25 -11.77
v 0 -2.8 -10.8838
v 0 -2.8 -10.8838
v 0 -1.25 -11.77
v -1.742739 -1.25 -11.00409
v 0 -2.8 -10.8838
v -1.742739 -1.25 -11.00409
v -1.638174 -2.8 -10.16385
v -1.638174 -2.8 -10.16385
v -1.742739 -1.25 -11.00409
v -3.264602 -1.25 -9.78761
v -1.638174 -2.8 -10.16385
v -3.264602 -1.25 -9.78761
v -3.068726 -2.8 -9.020354
v -3.068726 -2.8 -9.020354
v -3.264602 -1.25 -9.78761
v -4.866607 -1.25 -9.156135
v -3.068726 -2.8 -9.020354
v -4.866607 -1.25 -9.156135
v -4.57461 -2.8 -8.426767
v -4.57461 -2.8 -8.426767
v -4.866607 -1.25 -9.156135
v -6.500327 -1.25 -8.386998
v -4.57461 -2.8 -8.426767
v -6.500327 -1.25 -8.386998
v -6.110307 -2.8 -7.703778
v -6.110307 -2.8 -7.703778
v -6.500327 -1.25 -8.386998
v -7.860677 -1.25 -7.004492
v -6.110307 -2.8 -7.703778
v -7.860677 -1.25 -7.004492
v -7.389037 -2.8 -6.404222
v -7.389037 -2.8 -6.404222
v -7.860677 -1.25 -7.004492
v -9.090801 -1.25 -5.40617
v -7.389037 -2.8 -6.404222
v -9.090801 -1.25 -5.40617
v -8.545353 -2.8 -4.9018
v -8.545353 -2.8 -4.9018
v -9.090801 -1.25 -5.40617
v -10.02939 -1.25 -3.50393
v -8.545353 -2.8 -4.9018
v -10.02939 -1.25 -3.50393
v -9.427629 -2.8 -3.113694
v -9.427629 -2.8 -3.113694
v -10.02939 -1.25 -3.50393
v -10.23005 -1.25 -1.230475
v -9.427629 -2.8 -3.113694
v -10.23005 -1.25 -1.230475
v -9.616247 -2.8 -0.976646
v -9.616247 -2.8 -0.976646
v -10.23005 -1.25 -1.230475
v -10.31114 -1.25 0.92148
v -9.616247 -2.8 -0.976646
v -10.31114 -1.25 0.92148
v -9.692473 -2.8 1.046191
v -9.692473 -2.8 1.046191
v -10.31114 -1.25 0.92148
v -11 -1.25 3.000002
v -9.692473 -2.8 1.046191
v -11 -1.25 3.000002
v -10.34 -2.8 3.000002
vn -0.907482 -0.386412 -0.164808
vn -0.907482 -0.386412 -0.164808
vn -0.907482 -0.386412 -0.164808
vn -0.907482 -0.386412 -0.164808
vn -0.907482 -0.386412 -0.164808
vn -0.907482 -0.386412 -0.164808
vn -0.863851 -0.408121 0.295294
vn -0.863851 -0.408121 0.295294
vn -0.863851 -0.408121 0.295294
vn -0.863852 -0.40812 0.295293
vn -0.863852 -0.40812 0.295293
vn -0.863852 -0.40812 0.295293
vn -0.774884 -0.403968 0.486173
vn -0.774884 -0.403968 0.486173
vn -0.774884 -0.403968 0.486173
vn -0.774884 -0.403969 0.486174
vn -0.774884 -0.403969 0.486174
vn -0.774884 -0.403969 0.486174
vn -0.829393 -0.400849 0.389137
vn -0.829393 -0.400849 0.389137
vn -0.829393 -0.400849 0.389137
vn -0.829393 -0.400849 0.389137
vn -0.829393 -0.400849 0.389137
vn -0.829393 -0.400849 0.389137
vn -0.789205 -0.408846 0.458258
vn -0.789205 -0.408846 0.458258
vn -0.789205 -0.408846 0.458258
vn -0.789205 -0.408846 0.458258
vn -0.789205 -0.408846 0.458258
vn -0.789205 -0.408846 0.458258
vn -0.685439 -0.427629 0.589328
vn -0.685439 -0.427629 0.589328
vn -0.685439 -0.427629 0.589328
vn -0.685439 -0.427629 0.589328
vn -0.685439 -0.427629 0.589328
vn -0.685439 -0.427629 0.589328
vn -0.686096 -0.4275 0.588656
vn -0.686096 -0.4275 0.588656
vn -0.686096 -0.4275 0.588656
vn -0.686096 -0.4275 0.588656
vn -0.686096 -0.4275 0.588656
vn -0.686096 -0.4275 0.588656
vn -0.488966 -0.463007 0.739282
vn -0.488966 -0.463007 0.739282
vn -0.488966 -0.463007 0.739282
vn -0.488966 -0.463007 0.739282
vn -0.488966 -0.463007 0.739282
vn -0.488966 -0.463007 0.739282
vn 0.091799 -0.460513 0.882893
vn 0.091799 -0.460513 0.882893
vn 0.091799 -0.460513 0.882893
vn 0.091799 -0.460513 0.882893
vn 0.091799 -0.460513 0.882893
vn 0.091799 -0.460513 0.882893
vn 0.215487 -0.44512 0.869157
vn 0.215487 -0.44512 0.869157
vn 0.215487 -0.44512 0.869157
vn 0.215487 -0.44512 0.869157
vn 0.215487 -0.44512 0.869157
vn 0.215487 -0.44512 0.869157
vn -0.215487 -0.44512 0.869157
vn -0.215487 -0.44512 0.869157
vn -0.215487 -0.44512 0.869157
vn -0.215487 -0.44512 0.869157
vn -0.215487 -0.44512 0.869157
vn -0.215487 -0.44512 0.869157
vn -0.091798 -0.460513 0.882893
vn -0.091798 -0.460513 0.882893
vn -0.091798 -0.460513 0.882893
vn -0.091798 -0.460513 0.882893
vn -0.091798 -0.460513 0.882893
vn -0.091798 -0.460513 0.882893
vn 0.488965 -0.463007 0.739282
vn 0.488965 -0.463007 0.739282
vn 0.488965 -0.463007 0.739282
vn 0.488965 -0.463007 0.739282
vn 0.488965 -0.463007 0.739282
vn 0.488965 -0.463007 0.739282
vn 0.686097 -0.4275 0.588656
vn 0.686097 -0.4275 0.588656
vn 0.686097 -0.4275 0.588656
vn 0.686097 -0.427499 0.588656
vn 0.686097 -0.427499 0.588656
vn 0.686097 -0.427499 0.588656
vn 0.685438 -0.427629 0.589328
vn 0.685438 -0.427629 0.589328
vn 0.685438 -0.427629 0.589328
vn 0.685439 -0.427629 0.589328
vn 0.685439 -0.427629 0.589328
vn 0.685439 -0.427629 0.589328
vn 0.789205 -0.408846 0.458258
vn 0.789205 -0.408846 0.458258
vn 0.789205 -0.408846 0.458258
vn 0.789205 -0.408847 0.458258
vn 0.789205 -0.408847 0.458258
vn 0.789205 -0.408847 0.458258
vn 0.829393 -0.400849 0.389137
vn 0.829393 -0.400849 0.389137
vn 0.829393 -0.400849 0.389137
vn 0.829393 -0.400849 0.389137
vn 0.829393 -0.400849 0.389137
vn 0.829393 -0.400849 0.389137
vn 0.774884 -0.403968 0.486173
vn 0.774884 -0.403968 0.486173
vn 0.774884 -0.403968 0.486173
vn 0.774884 -0.403968 0.486173
vn 0.774884 -0.403968 0.486173
vn 0.774884 -0.403968 0.486173
vn 0.863851 -0.408121 0.295294
vn 0.863851 -0.408121 0.295294
vn 0.863851 -0.408121 0.295294
vn 0.863851 -0.408121 0.295294
vn 0.863851 -0.408121 0.295294
vn 0.863851 -0.408121 0.295294
vn 0.907482 -0.386412 -0.164808
vn 0.907482 -0.386412 -0.164808
vn 0.907482 -0.386412 -0.164808
vn 0.907482 -0.386412 -0.164808
vn 0.907482 -0.386412 -0.164808
vn 0.907482 -0.386412 -0.164808
vn 0.880059 -0.374735 -0.291667
vn 0.880059 -0.374735 -0.291667
vn 0.880059 -0.374735 -0.291667
vn 0.880059 -0.374735 -0.291667
vn 0.880059 -0.374735 -0.291667
vn 0.880059 -0.374735 -0.291667
vn 0.927213 -0.3729 -0.034939
vn 0.927213 -0.3729 -0.034939
vn 0.927213 -0.3729 -0.034939
vn 0.927214 -0.3729 -0.034939
vn 0.927214 -0.3729 -0.034939
vn 0.927214 -0.3729 -0.034939
vn 0.922035 -0.378455 -0.081381
vn 0.922035 -0.378455 -0.081381
vn 0.922035 -0.378455 -0.081381
vn 0.922036 -0.378454 -0.08138
vn 0.922036 -0.378454 -0.08138
vn 0.922036 -0.378454 -0.08138
vn 0.814849 -0.417576 -0.402058
vn 0.814849 -0.417576 -0.402058
vn 0.814849 -0.417576 -0.402058
vn 0.814849 -0.417577 -0.402058
vn 0.814849 -0.417577 -0.402058
vn 0.814849 -0.417577 -0.402058
vn 0.71517 -0.430777 -0.550421
vn 0.71517 -0.430777 -0.550421
vn 0.71517 -0.430777 -0.550421
vn 0.71517 -0.430777 -0.550421
vn 0.71517 -0.430777 -0.550421
vn 0.71517 -0.430777 -0.550421
vn 0.640459 -0.438938 -0.630195
vn 0.640459 -0.438938 -0.630195
vn 0.640459 -0.438938 -0.630195
vn 0.640459 -0.438938 -0.630195
vn 0.640459 -0.438938 -0.630195
vn 0.640459 -0.438938 -0.630195
vn 0.380063 -0.451477 -0.807292
vn 0.380063 -0.451477 -0.807292
vn 0.380063 -0.451477 -0.807292
vn 0.380063 -0.451477 -0.807292
vn 0.380063 -0.451477 -0.807292
vn 0.380063 -0.451477 -0.807292
vn 0.327099 -0.452103 -0.829825
vn 0.327099 -0.452103 -0.829825
vn 0.327099 -0.452103 -0.829825
vn 0.327099 -0.452103 -0.829825
vn 0.327099 -0.452103 -0.829825
vn 0.327099 -0.452103 -0.829825
vn 0.566041 -0.422063 -0.708139
vn 0.566041 -0.422063 -0.708139
vn 0.566041 -0.422063 -0.708139
vn 0.566041 -0.422063 -0.708139
vn 0.566041 -0.422063 -0.708139
vn 0.566041 -0.422063 -0.708139
vn 0.356466 -0.463738 -0.811097
vn 0.356466 -0.463738 -0.811097
vn 0.356466 -0.463738 -0.811097
vn 0.356466 -0.463738 -0.811097
vn 0.356466 -0.463738 -0.811097
vn 0.356466 -0.463738 -0.811097
vn -0.356466 -0.463738 -0.811097
vn -0.356466 -0.463738 -0.811097
vn -0.356466 -0.463738 -0.811097
vn -0.356466 -0.463738 -0.811097
vn -0.356466 -0.463738 -0.811097
vn -0.356466 -0.463738 -0.811097
vn -0.566041 -0.422063 -0.708139
vn -0.566041 -0.422063 -0.708139
vn -0.566041 -0.422063 -0.708139
vn -0.566041 -0.422063 -0.708139
vn -0.566041 -0.422063 -0.708139
vn -0.566041 -0.422063 -0.708139
vn -0.327099 -0.452103 -0.829825
vn -0.327099 -0.452103 -0.829825
vn -0.327099 -0.452103 -0.829825
vn -0.327099 -0.452103 -0.829825
vn -0.327099 -0.452103 -0.829825
vn -0.327099 -0.452103 -0.829825
vn -0.380064 -0.451477 -0.807292
vn -0.380064 -0.451477 -0.807292
vn -0.380064 -0.451477 -0.807292
vn -0.380064 -0.451478 -0.807292
vn -0.380064 -0.451478 -0.807292
vn -0.380064 -0.451478 -0.807292
vn -0.640459 -0.438938 -0.630195
vn -0.640459 -0.438938 -0.630195
vn -0.640459 -0.438938 -0.630195
vn -0.640459 -0.438938 -0.630195
vn -0.640459 -0.438938 -0.630195
vn -0.640459 -0.438938 -0.630195
vn -0.715171 -0.430777 -0.55042
vn -0.715171 -0.430777 -0.55042
vn -0.715171 -0.430777 -0.55042
vn -0.715171 -0.430777 -0.55042
vn -0.715171 -0.430777 -0.55042
vn -0.715171 -0.430777 -0.55042
vn -0.814849 -0.417577 -0.402057
vn -0.814849 -0.417577 -0.402057
vn -0.814849 -0.417577 -0.402057
vn -0.814849 -0.417576 -0.402058
vn -0.814849 -0.417576 -0.402058
vn -0.814849 -0.417576 -0.402058
vn -0.922036 -0.378454 -0.081381
vn -0.922036 -0.378454 -0.081381
vn -0.922036 -0.378454 -0.081381
vn -0.922035 -0.378455 -0.08138
vn -0.922035 -0.378455 -0.08138
vn -0.922035 -0.378455 -0.08138
vn -0.927213 -0.372901 -0.03494
vn -0.927213 -0.372901 -0.03494
vn -0.927213 -0.372901 -0.03494
vn -0.927213 -0.3729 -0.03494
vn -0.927213 -0.3729 -0.03494
vn -0.927213 -0.3729 -0.03494
vn -0.880059 -0.374735 -0.291668
vn -0.880059 -0.374735 -0.291668
vn -0.880059 -0.374735 -0.291668
vn -0.880059 -0.374735 -0.291668
vn -0.880059 -0.374735 -0.291668
vn -0.880059 -0.374735 -0.291668
f 241//241 243//243 242//242
f 244//244 246//246 245//245
f 247//247 249//249 248//248
f 250//250 252//252 251//251
f 253//253 255//255 254//254
f 256//256 258//258 257//257
f 259//259 261//261 260//260
f 262//262 264//264 263//263
f 265//265 267//267 266//266
f 268//268 270//270 269//269
f 271//271 273//273 272//272
f 274//274 276//276 275//275
f 277//277 279//279 278//278
f 280//280 282//282 281//281
f 283//283 285//285 284//284
f 286//286 288//288 287//287
f 289//289 291//291 290//290
f 292//292 294//294 293//293
f 295//295 297//297 296//296
f 298//298 300//300 299//299
f 301//301 303//303 302//302
f 304//304 306//306 305//305
f 307//307 309//309 308//308
f 310//310 312//312 311//311
f 313//313 315//315 314//314
f 316//316 318//318 317//317
f 319//319 321//321 320//320
f 322//322 324//324 323//323
f 325//325 327//327 326//326
f 328//328 330//330 329//329
f 331//331 333//333 332//332
f 334//334 336//336 335//335
f 337//337 339//339 338//338
f 340//340 342//342 341//341
f 343//343 345//345 344//344
f 346//346 348//348 347//347
f 349//349 351//351 350//350
f 352//352 354//354 353//353
f 355//355 357//357 356//356
f 358//358 360//360 359//359
f 361//361 363//363 362//362
f 364//364 366//366 365//365
f 367//367 369//369 368//368
f 370//370 372//372 371//371
f 373//373 375//375 374//374
f 376//376 378//378 377//377
f 379//379 381//381 380//380
f 382//382 384//384 383//383
f 385//385 387//387 386//386
f 388//388 390//390 389//389
f 391//391 393//393 392//392
f 394//394 396//396 395//395
f 397//397 399//399 398//398
f 400//400 402//402 401//401
f 403//403 405//405 404//404
f 406//406 408//408 407//407
f 409//409 411//411 410//410
f 412//412 414//414 413//413
f 415//415 417//417 416//416
f 418//418 420//420 419//419
f 421//421 423//423 422//422
f 424//424 426//426 425//425
f 427//427 429//429 428//428
f 430//430 432//432 431//431
f 433//433 435//435 434//434
f 436//436 438//438 437//437
f 439//439 441//441 440//440
f 442//442 444//444 443//443
f 445//445 447//447 446//446
f 448//448 450//450 449//449
f 451//451 453//453 452//452
f 454//454 456//456 455//455
f 457//457 459//459 458//458
f 460//460 462//462 461//461
f 463//463 465//465 464//464
f 466//466 468//468 467//467
f 469//469 471//471 470//470
f 472//472 474//474 473//473
f 475//475 477//477 476//476
f 478//478 480//480 479//479
o Carved_cliff_2
usemtl Sand
v -11 -1.25 3
v -11.165 -0.38 3
v -11.58927 -0.38 5.336168
v -11 -1.25 3
v -11.58927 -0.38 5.336168
v -11.418 -1.25 5.301643
v -11.418 -1.25 5.301643
v -11.58927 -0.38 5.336168
v -10.85359 -0.38 7.48833
v -11.418 -1.25 5.301643
v -10.85359 -0.38 7.48833
v -10.69319 -1.25 7.422
v -10.69319 -1.25 7.422
v -10.85359 -0.38 7.48833
v -9.716344 -0.38 9.300922
v -10.69319 -1.25 7.422
v -9.716344 -0.38 9.300922
v -9.572753 -1.25 9.207806
v -9.572753 -1.25 9.207806
v -9.716344 -0.38 9.300922
v -8.83819 -0.38 11.17259
v -9.572753 -1.25 9.207806
v -8.83819 -0.38 11.17259
v -8.707576 -1.25 11.05181
v -8.707576 -1.25 11.05181
v -8.83819 -0.38 11.17259
v -7.81111 -0.38 12.94141
v -8.707576 -1.25 11.05181
v -7.81111 -0.38 12.94141
v -7.695674 -1.25 12.79449
v -7.695674 -1.25 12.79449
v -7.81111 -0.38 12.94141
v -6.527416 -0.38 14.43446
v -7.695674 -1.25 12.79449
v -6.527416 -0.38 14.43446
v -6.430952 -1.25 14.26548
v -6.430952 -1.25 14.26548
v -6.527416 -0.38 14.43446
v -5.198004 -0.38 15.98393
v -6.430952 -1.25 14.26548
v -5.198004 -0.38 15.98393
v -5.121186 -1.25 15.79205
v -5.121186 -1.25 15.79205
v -5.198004 -0.38 15.98393
v -3.586779 -0.38 17.0496
v -5.121186 -1.25 15.79205
v -3.586779 -0.38 17.0496
v -3.533773 -1.25 16.84197
v -3.533773 -1.25 16.84197
v -3.586779 -0.38 17.0496
v -1.724301 -0.38 16.85595
v -3.533773 -1.25 16.84197
v -1.724301 -0.38 16.85595
v -1.698819 -1.25 16.65118
v -1.698819 -1.25 16.65118
v -1.724301 -0.38 16.85595
v 0 -0.38 16.42845
v -1.698819 -1.25 16.65118
v 0 -0.38 16.42845
v 0 -1.25 16.23
v 0 -1.25 16.23
v 0 -0.38 16.42845
v 1.724302 -0.38 16.85595
v 0 -1.25 16.23
v 1.724302 -0.38 16.85595
v 1.69882 -1.25 16.65118
v 1.69882 -1.25 16.65118
v 1.724302 -0.38 16.85595
v 3.58678 -0.38 17.0496
v 1.69882 -1.25 16.65118
v 3.58678 -0.38 17.0496
v 3.533773 -1.25 16.84197
v 3.533773 -1.25 16.84197
v 3.58678 -0.38 17.0496
v 5.198005 -0.38 15.98393
v 3.533773 -1.25 16.84197
v 5.198005 -0.38 15.98393
v 5.121187 -1.25 15.79205
v 5.121187 -1.25 15.79205
v 5.198005 -0.38 15.98393
v 6.527414 -0.38 14.43446
v 5.121187 -1.25 15.79205
v 6.527414 -0.38 14.43446
v 6.43095 -1.25 14.26548
v 6.43095 -1.25 14.26548
v 6.527414 -0.38 14.43446
v 7.81111 -0.38 12.94141
v 6.43095 -1.25 14.26548
v 7.81111 -0.38 12.94141
v 7.695674 -1.25 12.79449
v 7.695674 -1.25 12.79449
v 7.81111 -0.38 12.94141
v 8.83819 -0.38 11.17259
v 7.695674 -1.25 12.79449
v 8.83819 -0.38 11.17259
v 8.707577 -1.25 11.05181
v 8.707577 -1.25 11.05181
v 8.83819 -0.38 11.17259
v 9.716345 -0.38 9.30092
v 8.707577 -1.25 11.05181
v 9.716345 -0.38 9.30092
v 9.572754 -1.25 9.207804
v 9.572754 -1.25 9.207804
v 9.716345 -0.38 9.30092
v 10.85359 -0.38 7.488328
v 9.572754 -1.25 9.207804
v 10.85359 -0.38 7.488328
v 10.69319 -1.25 7.421998
v 10.69319 -1.25 7.421998
v 10.85359 -0.38 7.488328
v 11.58927 -0.38 5.336167
v 10.69319 -1.25 7.421998
v 11.58927 -0.38 5.336167
v 11.418 -1.25 5.301643
v 11.418 -1.25 5.301643
v 11.58927 -0.38 5.336167
v 11.165 -0.38 2.999999
v 11.418 -1.25 5.301643
v 11.165 -0.38 2.999999
v 11 -1.25 2.999999
v 11 -1.25 2.999999
v 11.165 -0.38 2.999999
v 10.46581 -0.38 0.890298
v 11 -1.25 2.999999
v 10.46581 -0.38 0.890298
v 10.31114 -1.25 0.921476
v 10.31114 -1.25 0.921476
v 10.46581 -0.38 0.890298
v 10.3835 -0.38 -1.293932
v 10.31114 -1.25 0.921476
v 10.3835 -0.38 -1.293932
v 10.23005 -1.25 -1.230475
v 10.23005 -1.25 -1.230475
v 10.3835 -0.38 -1.293932
v 10.17983 -0.38 -3.601489
v 10.23005 -1.25 -1.230475
v 10.17983 -0.38 -3.601489
v 10.02939 -1.25 -3.50393
v 10.02939 -1.25 -3.50393
v 10.17983 -0.38 -3.601489
v 9.227159 -0.38 -5.532268
v 10.02939 -1.25 -3.50393
v 9.227159 -0.38 -5.532268
v 9.090796 -1.25 -5.406176
v 9.090796 -1.25 -5.406176
v 9.227159 -0.38 -5.532268
v 7.978582 -0.38 -7.154563
v 9.090796 -1.25 -5.406176
v 7.978582 -0.38 -7.154563
v 7.860672 -1.25 -7.004496
v 7.860672 -1.25 -7.004496
v 7.978582 -0.38 -7.154563
v 6.597826 -0.38 -8.557806
v 7.860672 -1.25 -7.004496
v 6.597826 -0.38 -8.557806
v 6.500322 -1.25 -8.387001
v 6.500322 -1.25 -8.387001
v 6.597826 -0.38 -8.557806
v 4.9396 -0.38 -9.338479
v 6.500322 -1.25 -8.387001
v 4.9396 -0.38 -9.338479
v 4.866601 -1.25 -9.156137
v 4.866601 -1.25 -9.156137
v 4.9396 -0.38 -9.338479
v 3.313571 -0.38 -9.979424
v 4.866601 -1.25 -9.156137
v 3.313571 -0.38 -9.979424
v 3.264602 -1.25 -9.78761
v 3.264602 -1.25 -9.78761
v 3.313571 -0.38 -9.979424
v 1.76888 -0.38 -11.21415
v 3.264602 -1.25 -9.78761
v 1.76888 -0.38 -11.21415
v 1.742739 -1.25 -11.00409
v 1.742739 -1.25 -11.00409
v 1.76888 -0.38 -11.21415
v 0 -0.38 -11.99155
v 1.742739 -1.25 -11.00409
v 0 -0.38 -11.99155
v 0 -1.25 -11.77
v 0 -1.25 -11.77
v 0 -0.38 -11.99155
v -1.76888 -0.38 -11.21415
v 0 -1.25 -11.77
v -1.76888 -0.38 -11.21415
v -1.742739 -1.25 -11.00409
v -1.742739 -1.25 -11.00409
v -1.76888 -0.38 -11.21415
v -3.313571 -0.38 -9.979424
v -1.742739 -1.25 -11.00409
v -3.313571 -0.38 -9.979424
v -3.264602 -1.25 -9.78761
v -3.264602 -1.25 -9.78761
v -3.313571 -0.38 -9.979424
v -4.939606 -0.38 -9.338477
v -3.264602 -1.25 -9.78761
v -4.939606 -0.38 -9.338477
v -4.866607 -1.25 -9.156135
v -4.866607 -1.25 -9.156135
v -4.939606 -0.38 -9.338477
v -6.597832 -0.38 -8.557803
v -4.866607 -1.25 -9.156135
v -6.597832 -0.38 -8.557803
v -6.500327 -1.25 -8.386998
v -6.500327 -1.25 -8.386998
v -6.597832 -0.38 -8.557803
v -7.978588 -0.38 -7.154559
v -6.500327 -1.25 -8.386998
v -7.978588 -0.38 -7.154559
v -7.860677 -1.25 -7.004492
v -7.860677 -1.25 -7.004492
v -7.978588 -0.38 -7.154559
v -9.227163 -0.38 -5.532263
v -7.860677 -1.25 -7.004492
v -9.227163 -0.38 -5.532263
v -9.090801 -1.25 -5.40617
v -9.090801 -1.25 -5.40617
v -9.227163 -0.38 -5.532263
v -10.17983 -0.38 -3.601489
v -9.090801 -1.25 -5.40617
v -10.17983 -0.38 -3.601489
v -10.02939 -1.25 -3.50393
v -10.02939 -1.25 -3.50393
v -10.17983 -0.38 -3.601489
v -10.3835 -0.38 -1.293932
v -10.02939 -1.25 -3.50393
v -10.3835 -0.38 -1.293932
v -10.23005 -1.25 -1.230475
v -10.23005 -1.25 -1.230475
v -10.3835 -0.38 -1.293932
v -10.46581 -0.38 0.890302
v -10.23005 -1.25 -1.230475
v -10.46581 -0.38 0.890302
v -10.31114 -1.25 0.92148
v -10.31114 -1.25 0.92148
v -10.46581 -0.38 0.890302
v -11.165 -0.38 3.000002
v -10.31114 -1.25 0.92148
v -11.165 -0.38 3.000002
v -11 -1.25 3.000002
vn -0.967211 -0.183437 -0.175655
vn -0.967211 -0.183437 -0.175655
vn -0.967211 -0.183437 -0.175655
vn -0.967211 -0.183436 -0.175655
vn -0.967211 -0.183436 -0.175655
vn -0.967211 -0.183436 -0.175655
vn -0.928025 -0.195281 0.31723
vn -0.928025 -0.195281 0.31723
vn -0.928025 -0.195281 0.31723
vn -0.928025 -0.195281 0.31723
vn -0.928025 -0.195281 0.31723
vn -0.928025 -0.195281 0.31723
vn -0.831153 -0.192994 0.521477
vn -0.831153 -0.192994 0.521477
vn -0.831153 -0.192994 0.521477
vn -0.831153 -0.192993 0.521477
vn -0.831153 -0.192993 0.521477
vn -0.831153 -0.192993 0.521477
vn -0.888592 -0.191282 0.416912
vn -0.888592 -0.191282 0.416912
vn -0.888592 -0.191282 0.416912
vn -0.888592 -0.191283 0.416912
vn -0.888592 -0.191283 0.416912
vn -0.888592 -0.191283 0.416912
vn -0.848066 -0.195683 0.492436
vn -0.848066 -0.195683 0.492436
vn -0.848066 -0.195683 0.492436
vn -0.848066 -0.195683 0.492436
vn -0.848066 -0.195683 0.492436
vn -0.848066 -0.195683 0.492436
vn -0.741975 -0.206177 0.637937
vn -0.741975 -0.206177 0.637937
vn -0.741975 -0.206177 0.637937
vn -0.741976 -0.206177 0.637937
vn -0.741976 -0.206177 0.637937
vn -0.741976 -0.206177 0.637937
vn -0.742649 -0.206104 0.637177
vn -0.742649 -0.206104 0.637177
vn -0.742649 -0.206104 0.637177
vn -0.742649 -0.206104 0.637177
vn -0.742649 -0.206104 0.637177
vn -0.742649 -0.206104 0.637177
vn -0.537308 -0.226612 0.812372
vn -0.537308 -0.226612 0.812372
vn -0.537308 -0.226612 0.812372
vn -0.537308 -0.226612 0.812372
vn -0.537308 -0.226612 0.812372
vn -0.537308 -0.226612 0.812372
vn 0.100762 -0.22514 0.969102
vn 0.100762 -0.22514 0.969102
vn 0.100762 -0.22514 0.969102
vn 0.100763 -0.225141 0.969102
vn 0.100763 -0.225141 0.969102
vn 0.100763 -0.225141 0.969102
vn 0.234951 -0.216165 0.947666
vn 0.234951 -0.216165 0.947666
vn 0.234951 -0.216165 0.947666
vn 0.234952 -0.216166 0.947666
vn 0.234952 -0.216166 0.947666
vn 0.234952 -0.216166 0.947666
vn -0.234951 -0.216166 0.947666
vn -0.234951 -0.216166 0.947666
vn -0.234951 -0.216166 0.947666
vn -0.234952 -0.216165 0.947666
vn -0.234952 -0.216165 0.947666
vn -0.234952 -0.216165 0.947666
vn -0.100762 -0.225141 0.969102
vn -0.100762 -0.225141 0.969102
vn -0.100762 -0.225141 0.969102
vn -0.100762 -0.225142 0.969102
vn -0.100762 -0.225142 0.969102
vn -0.100762 -0.225142 0.969102
vn 0.537308 -0.226613 0.812371
vn 0.537308 -0.226613 0.812371
vn 0.537308 -0.226613 0.812371
vn 0.537307 -0.226612 0.812372
vn 0.537307 -0.226612 0.812372
vn 0.537307 -0.226612 0.812372
vn 0.742649 -0.206103 0.637176
vn 0.742649 -0.206103 0.637176
vn 0.742649 -0.206103 0.637176
vn 0.742649 -0.206104 0.637176
vn 0.742649 -0.206104 0.637176
vn 0.742649 -0.206104 0.637176
vn 0.741975 -0.206177 0.637938
vn 0.741975 -0.206177 0.637938
vn 0.741975 -0.206177 0.637938
vn 0.741975 -0.206177 0.637938
vn 0.741975 -0.206177 0.637938
vn 0.741975 -0.206177 0.637938
vn 0.848066 -0.195683 0.492436
vn 0.848066 -0.195683 0.492436
vn 0.848066 -0.195683 0.492436
vn 0.848066 -0.195682 0.492436
vn 0.848066 -0.195682 0.492436
vn 0.848066 -0.195682 0.492436
vn 0.888592 -0.191282 0.416912
vn 0.888592 -0.191282 0.416912
vn 0.888592 -0.191282 0.416912
vn 0.888592 -0.191282 0.416912
vn 0.888592 -0.191282 0.416912
vn 0.888592 -0.191282 0.416912
vn 0.831153 -0.192993 0.521477
vn 0.831153 -0.192993 0.521477
vn 0.831153 -0.192993 0.521477
vn 0.831153 -0.192994 0.521477
vn 0.831153 -0.192994 0.521477
vn 0.831153 -0.192994 0.521477
vn 0.928025 -0.195281 0.31723
vn 0.928025 -0.195281 0.31723
vn 0.928025 -0.195281 0.31723
vn 0.928025 -0.195281 0.31723
vn 0.928025 -0.195281 0.31723
vn 0.928025 -0.195281 0.31723
vn 0.967211 -0.183436 -0.175656
vn 0.967211 -0.183436 -0.175656
vn 0.967211 -0.183436 -0.175656
vn 0.967211 -0.183435 -0.175656
vn 0.967211 -0.183435 -0.175656
vn 0.967211 -0.183435 -0.175656
vn 0.93421 -0.177177 -0.309613
vn 0.93421 -0.177177 -0.309613
vn 0.93421 -0.177177 -0.309613
vn 0.93421 -0.177177 -0.309613
vn 0.93421 -0.177177 -0.309613
vn 0.93421 -0.177177 -0.309613
vn 0.983656 -0.176201 -0.037066
vn 0.983656 -0.176201 -0.037066
vn 0.983656 -0.176201 -0.037066
vn 0.983656 -0.176201 -0.037066
vn 0.983656 -0.176201 -0.037066
vn 0.983656 -0.176201 -0.037066
vn 0.98001 -0.179164 -0.086498
vn 0.98001 -0.179164 -0.086498
vn 0.98001 -0.179164 -0.086498
vn 0.98001 -0.179164 -0.086498
vn 0.98001 -0.179164 -0.086498
vn 0.98001 -0.179164 -0.086498
vn 0.878561 -0.200532 -0.433495
vn 0.878561 -0.200532 -0.433495
vn 0.878561 -0.200532 -0.433495
vn 0.878561 -0.200532 -0.433494
vn 0.878561 -0.200532 -0.433494
vn 0.878561 -0.200532 -0.433494
vn 0.775144 -0.207959 -0.596578
vn 0.775144 -0.207959 -0.596578
vn 0.775144 -0.207959 -0.596578
vn 0.775144 -0.207959 -0.596578
vn 0.775144 -0.207959 -0.596578
vn 0.775144 -0.207959 -0.596578
vn 0.696499 -0.21261 -0.685337
vn 0.696499 -0.21261 -0.685337
vn 0.696499 -0.21261 -0.685337
vn 0.696499 -0.21261 -0.685337
vn 0.696499 -0.21261 -0.685337
vn 0.696499 -0.21261 -0.685337
vn 0.415524 -0.219851 -0.882613
vn 0.415524 -0.219851 -0.882613
vn 0.415524 -0.219851 -0.882613
vn 0.415523 -0.219851 -0.882613
vn 0.415523 -0.219851 -0.882613
vn 0.415523 -0.219851 -0.882613
vn 0.357714 -0.220216 -0.907494
vn 0.357714 -0.220216 -0.907494
vn 0.357714 -0.220216 -0.907494
vn 0.357715 -0.220214 -0.907494
vn 0.357715 -0.220214 -0.907494
vn 0.357715 -0.220214 -0.907494
vn 0.611373 -0.203043 -0.764851
vn 0.611373 -0.203043 -0.764851
vn 0.611373 -0.203043 -0.764851
vn 0.611373 -0.203043 -0.764851
vn 0.611373 -0.203043 -0.764851
vn 0.611373 -0.203043 -0.764851
vn 0.391837 -0.227045 -0.89158
vn 0.391837 -0.227045 -0.89158
vn 0.391837 -0.227045 -0.89158
vn 0.391837 -0.227045 -0.89158
vn 0.391837 -0.227045 -0.89158
vn 0.391837 -0.227045 -0.89158
vn -0.391837 -0.227045 -0.89158
vn -0.391837 -0.227045 -0.89158
vn -0.391837 -0.227045 -0.89158
vn -0.391837 -0.227045 -0.89158
vn -0.391837 -0.227045 -0.89158
vn -0.391837 -0.227045 -0.89158
vn -0.611373 -0.203043 -0.764851
vn -0.611373 -0.203043 -0.764851
vn -0.611373 -0.203043 -0.764851
vn -0.611373 -0.203043 -0.764851
vn -0.611373 -0.203043 -0.764851
vn -0.611373 -0.203043 -0.764851
vn -0.357714 -0.220215 -0.907494
vn -0.357714 -0.220215 -0.907494
vn -0.357714 -0.220215 -0.907494
vn -0.357715 -0.220216 -0.907494
vn -0.357715 -0.220216 -0.907494
vn -0.357715 -0.220216 -0.907494
vn -0.415524 -0.219851 -0.882613
vn -0.415524 -0.219851 -0.882613
vn -0.415524 -0.219851 -0.882613
vn -0.415524 -0.219851 -0.882613
vn -0.415524 -0.219851 -0.882613
vn -0.415524 -0.219851 -0.882613
vn -0.696499 -0.21261 -0.685337
vn -0.696499 -0.21261 -0.685337
vn -0.696499 -0.21261 -0.685337
vn -0.696499 -0.21261 -0.685337
vn -0.696499 -0.21261 -0.685337
vn -0.696499 -0.21261 -0.685337
vn -0.775144 -0.207959 -0.596578
vn -0.775144 -0.207959 -0.596578
vn -0.775144 -0.207959 -0.596578
vn -0.775144 -0.207959 -0.596578
vn -0.775144 -0.207959 -0.596578
vn -0.775144 -0.207959 -0.596578
vn -0.878561 -0.200532 -0.433494
vn -0.878561 -0.200532 -0.433494
vn -0.878561 -0.200532 -0.433494
vn -0.878562 -0.200532 -0.433494
vn -0.878562 -0.200532 -0.433494
vn -0.878562 -0.200532 -0.433494
vn -0.98001 -0.179164 -0.086497
vn -0.98001 -0.179164 -0.086497
vn -0.98001 -0.179164 -0.086497
vn -0.98001 -0.179163 -0.086498
vn -0.98001 -0.179163 -0.086498
vn -0.98001 -0.179163 -0.086498
vn -0.983656 -0.1762 -0.037067
vn -0.983656 -0.1762 -0.037067
vn -0.983656 -0.1762 -0.037067
vn -0.983656 -0.176201 -0.037067
vn -0.983656 -0.176201 -0.037067
vn -0.983656 -0.176201 -0.037067
vn -0.934209 -0.177177 -0.309614
vn -0.934209 -0.177177 -0.309614
vn -0.934209 -0.177177 -0.309614
vn -0.934209 -0.177178 -0.309614
vn -0.934209 -0.177178 -0.309614
vn -0.934209 -0.177178 -0.309614
f 481//481 483//483 482//482
f 484//484 486//486 485//485
f 487//487 489//489 488//488
f 490//490 492//492 491//491
f 493//493 495//495 494//494
f 496//496 498//498 497//497
f 499//499 501//501 500//500
f 502//502 504//504 503//503
f 505//505 507//507 506//506
f 508//508 510//510 509//509
f 511//511 513//513 512//512
f 514//514 516//516 515//515
f 517//517 519//519 518//518
f 520//520 522//522 521//521
f 523//523 525//525 524//524
f 526//526 528//528 527//527
f 529//529 531//531 530//530
f 532//532 534//534 533//533
f 535//535 537//537 536//536
f 538//538 540//540 539//539
f 541//541 543//543 542//542
f 544//544 546//546 545//545
f 547//547 549//549 548//548
f 550//550 552//552 551//551
f 553//553 555//555 554//554
f 556//556 558//558 557//557
f 559//559 561//561 560//560
f 562//562 564//564 563//563
f 565//565 567//567 566//566
f 568//568 570//570 569//569
f 571//571 573//573 572//572
f 574//574 576//576 575//575
f 577//577 579//579 578//578
f 580//580 582//582 581//581
f 583//583 585//585 584//584
f 586//586 588//588 587//587
f 589//589 591//591 590//590
f 592//592 594//594 593//593
f 595//595 597//597 596//596
f 598//598 600//600 599//599
f 601//601 603//603 602//602
f 604//604 606//606 605//605
f 607//607 609//609 608//608
f 610//610 612//612 611//611
f 613//613 615//615 614//614
f 616//616 618//618 617//617
f 619//619 621//621 620//620
f 622//622 624//624 623//623
f 625//625 627//627 626//626
f 628//628 630//630 629//629
f 631//631 633//633 632//632
f 634//634 636//636 635//635
f 637//637 639//639 638//638
f 640//640 642//642 641//641
f 643//643 645//645 644//644
f 646//646 648//648 647//647
f 649//649 651//651 650//650
f 652//652 654//654 653//653
f 655//655 657//657 656//656
f 658//658 660//660 659//659
f 661//661 663//663 662//662
f 664//664 666//666 665//665
f 667//667 669//669 668//668
f 670//670 672//672 671//671
f 673//673 675//675 674//674
f 676//676 678//678 677//677
f 679//679 681//681 680//680
f 682//682 684//684 683//683
f 685//685 687//687 686//686
f 688//688 690//690 689//689
f 691//691 693//693 692//692
f 694//694 696//696 695//695
f 697//697 699//699 698//698
f 700//700 702//702 701//701
f 703//703 705//705 704//704
f 706//706 708//708 707//707
f 709//709 711//711 710//710
f 712//712 714//714 713//713
f 715//715 717//717 716//716
f 718//718 720//720 719//719
o Carved_cliff_3
usemtl Cream
v -11.165 -0.38 3
v -11.11 -0.1 3
v -11.53218 -0.1 5.32466
v -11.165 -0.38 3
v -11.53218 -0.1 5.32466
v -11.58927 -0.38 5.336168
v -11.58927 -0.38 5.336168
v -11.53218 -0.1 5.32466
v -10.80012 -0.1 7.46622
v -11.58927 -0.38 5.336168
v -10.80012 -0.1 7.46622
v -10.85359 -0.38 7.48833
v -10.85359 -0.38 7.48833
v -10.80012 -0.1 7.46622
v -9.66848 -0.1 9.269883
v -10.85359 -0.38 7.48833
v -9.66848 -0.1 9.269883
v -9.716344 -0.38 9.300922
v -9.716344 -0.38 9.300922
v -9.66848 -0.1 9.269883
v -8.794652 -0.1 11.13233
v -9.716344 -0.38 9.300922
v -8.794652 -0.1 11.13233
v -8.83819 -0.38 11.17259
v -8.83819 -0.38 11.17259
v -8.794652 -0.1 11.13233
v -7.772631 -0.1 12.89244
v -8.83819 -0.38 11.17259
v -7.772631 -0.1 12.89244
v -7.81111 -0.38 12.94141
v -7.81111 -0.38 12.94141
v -7.772631 -0.1 12.89244
v -6.495261 -0.1 14.37813
v -7.81111 -0.38 12.94141
v -6.495261 -0.1 14.37813
v -6.527416 -0.38 14.43446
v -6.527416 -0.38 14.43446
v -6.495261 -0.1 14.37813
v -5.172398 -0.1 15.91997
v -6.527416 -0.38 14.43446
v -5.172398 -0.1 15.91997
v -5.198004 -0.38 15.98393
v -5.198004 -0.38 15.98393
v -5.172398 -0.1 15.91997
v -3.56911 -0.1 16.98039
v -5.198004 -0.38 15.98393
v -3.56911 -0.1 16.98039
v -3.586779 -0.38 17.0496
v -3.586779 -0.38 17.0496
v -3.56911 -0.1 16.98039
v -1.715807 -0.1 16.78769
v -3.586779 -0.38 17.0496
v -1.715807 -0.1 16.78769
v -1.724301 -0.38 16.85595
v -1.724301 -0.38 16.85595
v -1.715807 -0.1 16.78769
v 0 -0.1 16.3623
v -1.724301 -0.38 16.85595
v 0 -0.1 16.3623
v 0 -0.38 16.42845
v 0 -0.38 16.42845
v 0 -0.1 16.3623
v 1.715808 -0.1 16.78769
v 0 -0.38 16.42845
v 1.715808 -0.1 16.78769
v 1.724302 -0.38 16.85595
v 1.724302 -0.38 16.85595
v 1.715808 -0.1 16.78769
v 3.569111 -0.1 16.98039
v 1.724302 -0.38 16.85595
v 3.569111 -0.1 16.98039
v 3.58678 -0.38 17.0496
v 3.58678 -0.38 17.0496
v 3.569111 -0.1 16.98039
v 5.172399 -0.1 15.91997
v 3.58678 -0.38 17.0496
v 5.172399 -0.1 15.91997
v 5.198005 -0.38 15.98393
v 5.198005 -0.38 15.98393
v 5.172399 -0.1 15.91997
v 6.49526 -0.1 14.37813
v 5.198005 -0.38 15.98393
v 6.49526 -0.1 14.37813
v 6.527414 -0.38 14.43446
v 6.527414 -0.38 14.43446
v 6.49526 -0.1 14.37813
v 7.772631 -0.1 12.89244
v 6.527414 -0.38 14.43446
v 7.772631 -0.1 12.89244
v 7.81111 -0.38 12.94141
v 7.81111 -0.38 12.94141
v 7.772631 -0.1 12.89244
v 8.794652 -0.1 11.13233
v 7.81111 -0.38 12.94141
v 8.794652 -0.1 11.13233
v 8.83819 -0.38 11.17259
v 8.83819 -0.38 11.17259
v 8.794652 -0.1 11.13233
v 9.668481 -0.1 9.269881
v 8.83819 -0.38 11.17259
v 9.668481 -0.1 9.269881
v 9.716345 -0.38 9.30092
v 9.716345 -0.38 9.30092
v 9.668481 -0.1 9.269881
v 10.80013 -0.1 7.466218
v 9.716345 -0.38 9.30092
v 10.80013 -0.1 7.466218
v 10.85359 -0.38 7.488328
v 10.85359 -0.38 7.488328
v 10.80013 -0.1 7.466218
v 11.53218 -0.1 5.324659
v 10.85359 -0.38 7.488328
v 11.53218 -0.1 5.324659
v 11.58927 -0.38 5.336167
v 11.58927 -0.38 5.336167
v 11.53218 -0.1 5.324659
v 11.11 -0.1 2.999999
v 11.58927 -0.38 5.336167
v 11.11 -0.1 2.999999
v 11.165 -0.38 2.999999
v 11.165 -0.38 2.999999
v 11.11 -0.1 2.999999
v 10.41425 -0.1 0.900691
v 11.165 -0.38 2.999999
v 10.41425 -0.1 0.900691
v 10.46581 -0.38 0.890298
v 10.46581 -0.38 0.890298
v 10.41425 -0.1 0.900691
v 10.33235 -0.1 -1.27278
v 10.46581 -0.38 0.890298
v 10.33235 -0.1 -1.27278
v 10.3835 -0.38 -1.293932
v 10.3835 -0.38 -1.293932
v 10.33235 -0.1 -1.27278
v 10.12969 -0.1 -3.568969
v 10.3835 -0.38 -1.293932
v 10.12969 -0.1 -3.568969
v 10.17983 -0.38 -3.601489
v 10.17983 -0.38 -3.601489
v 10.12969 -0.1 -3.568969
v 9.181705 -0.1 -5.490237
v 10.17983 -0.38 -3.601489
v 9.181705 -0.1 -5.490237
v 9.227159 -0.38 -5.532268
v 9.227159 -0.38 -5.532268
v 9.181705 -0.1 -5.490237
v 7.939279 -0.1 -7.10454
v 9.227159 -0.38 -5.532268
v 7.939279 -0.1 -7.10454
v 7.978582 -0.38 -7.154563
v 7.978582 -0.38 -7.154563
v 7.939279 -0.1 -7.10454
v 6.565325 -0.1 -8.500871
v 7.978582 -0.38 -7.154563
v 6.565325 -0.1 -8.500871
v 6.597826 -0.38 -8.557806
v 6.597826 -0.38 -8.557806
v 6.565325 -0.1 -8.500871
v 4.915267 -0.1 -9.277699
v 6.597826 -0.38 -8.557806
v 4.915267 -0.1 -9.277699
v 4.9396 -0.38 -9.338479
v 4.9396 -0.38 -9.338479
v 4.915267 -0.1 -9.277699
v 3.297248 -0.1 -9.915485
v 4.9396 -0.38 -9.338479
v 3.297248 -0.1 -9.915485
v 3.313571 -0.38 -9.979424
v 3.313571 -0.38 -9.979424
v 3.297248 -0.1 -9.915485
v 1.760166 -0.1 -11.14413
v 3.313571 -0.38 -9.979424
v 1.760166 -0.1 -11.14413
v 1.76888 -0.38 -11.21415
v 1.76888 -0.38 -11.21415
v 1.760166 -0.1 -11.14413
v 0 -0.1 -11.9177
v 1.76888 -0.38 -11.21415
v 0 -0.1 -11.9177
v 0 -0.38 -11.99155
v 0 -0.38 -11.99155
v 0 -0.1 -11.9177
v -1.760166 -0.1 -11.14413
v 0 -0.38 -11.99155
v -1.760166 -0.1 -11.14413
v -1.76888 -0.38 -11.21415
v -1.76888 -0.38 -11.21415
v -1.760166 -0.1 -11.14413
v -3.297248 -0.1 -9.915486
v -1.76888 -0.38 -11.21415
v -3.297248 -0.1 -9.915486
v -3.313571 -0.38 -9.979424
v -3.313571 -0.38 -9.979424
v -3.297248 -0.1 -9.915486
v -4.915273 -0.1 -9.277697
v -3.313571 -0.38 -9.979424
v -4.915273 -0.1 -9.277697
v -4.939606 -0.38 -9.338477
v -4.939606 -0.38 -9.338477
v -4.915273 -0.1 -9.277697
v -6.56533 -0.1 -8.500868
v -4.939606 -0.38 -9.338477
v -6.56533 -0.1 -8.500868
v -6.597832 -0.38 -8.557803
v -6.597832 -0.38 -8.557803
v -6.56533 -0.1 -8.500868
v -7.939284 -0.1 -7.104537
v -6.597832 -0.38 -8.557803
v -7.939284 -0.1 -7.104537
v -7.978588 -0.38 -7.154559
v -7.978588 -0.38 -7.154559
v -7.939284 -0.1 -7.104537
v -9.181709 -0.1 -5.490232
v -7.978588 -0.38 -7.154559
v -9.181709 -0.1 -5.490232
v -9.227163 -0.38 -5.532263
v -9.227163 -0.38 -5.532263
v -9.181709 -0.1 -5.490232
v -10.12969 -0.1 -3.568969
v -9.227163 -0.38 -5.532263
v -10.12969 -0.1 -3.568969
v -10.17983 -0.38 -3.601489
v -10.17983 -0.38 -3.601489
v -10.12969 -0.1 -3.568969
v -10.33235 -0.1 -1.272779
v -10.17983 -0.38 -3.601489
v -10.33235 -0.1 -1.272779
v -10.3835 -0.38 -1.293932
v -10.3835 -0.38 -1.293932
v -10.33235 -0.1 -1.272779
v -10.41425 -0.1 0.900694
v -10.3835 -0.38 -1.293932
v -10.41425 -0.1 0.900694
v -10.46581 -0.38 0.890302
v -10.46581 -0.38 0.890302
v -10.41425 -0.1 0.900694
v -11.11 -0.1 3.000002
v -10.46581 -0.38 0.890302
v -11.11 -0.1 3.000002
v -11.165 -0.38 3.000002
vn -0.96603 0.189757 -0.175441
vn -0.96603 0.189757 -0.175441
vn -0.96603 0.189757 -0.175441
vn -0.96603 0.189755 -0.175441
vn -0.96603 0.189755 -0.175441
vn -0.96603 0.189755 -0.175441
vn -0.926741 0.201975 0.316791
vn -0.926741 0.201975 0.316791
vn -0.926741 0.201975 0.316791
vn -0.926741 0.201976 0.316791
vn -0.926741 0.201976 0.316791
vn -0.926741 0.201976 0.316791
vn -0.83003 0.199616 0.520773
vn -0.83003 0.199616 0.520773
vn -0.83003 0.199616 0.520773
vn -0.83003 0.199618 0.520772
vn -0.83003 0.199618 0.520772
vn -0.83003 0.199618 0.520772
vn -0.887412 0.197852 0.416358
vn -0.887412 0.197852 0.416358
vn -0.887412 0.197852 0.416358
vn -0.887412 0.197851 0.416359
vn -0.887412 0.197851 0.416359
vn -0.887412 0.197851 0.416359
vn -0.846888 0.202389 0.491752
vn -0.846888 0.202389 0.491752
vn -0.846888 0.202389 0.491752
vn -0.846888 0.202389 0.491752
vn -0.846888 0.202389 0.491752
vn -0.846888 0.202389 0.491752
vn -0.740832 0.213211 0.636954
vn -0.740832 0.213211 0.636954
vn -0.740832 0.213211 0.636954
vn -0.740831 0.213211 0.636954
vn -0.740831 0.213211 0.636954
vn -0.740831 0.213211 0.636954
vn -0.741504 0.213136 0.636195
vn -0.741504 0.213136 0.636195
vn -0.741504 0.213136 0.636195
vn -0.741505 0.213135 0.636195
vn -0.741505 0.213135 0.636195
vn -0.741505 0.213135 0.636195
vn -0.536307 0.234268 0.810859
vn -0.536307 0.234268 0.810859
vn -0.536307 0.234268 0.810859
vn -0.536307 0.23427 0.810859
vn -0.536307 0.23427 0.810859
vn -0.536307 0.23427 0.810859
vn 0.100576 0.232755 0.967321
vn 0.100576 0.232755 0.967321
vn 0.100576 0.232755 0.967321
vn 0.100577 0.232749 0.967322
vn 0.100577 0.232749 0.967322
vn 0.100577 0.232749 0.967322
vn 0.234555 0.223502 0.946061
vn 0.234555 0.223502 0.946061
vn 0.234555 0.223502 0.946061
vn 0.234553 0.223509 0.94606
vn 0.234553 0.223509 0.94606
vn 0.234553 0.223509 0.94606
vn -0.234554 0.223509 0.946059
vn -0.234554 0.223509 0.946059
vn -0.234554 0.223509 0.946059
vn -0.234553 0.223502 0.946061
vn -0.234553 0.223502 0.946061
vn -0.234553 0.223502 0.946061
vn -0.100577 0.232749 0.967322
vn -0.100577 0.232749 0.967322
vn -0.100577 0.232749 0.967322
vn -0.100577 0.232755 0.967321
vn -0.100577 0.232755 0.967321
vn -0.100577 0.232755 0.967321
vn 0.536307 0.23427 0.810859
vn 0.536307 0.23427 0.810859
vn 0.536307 0.23427 0.810859
vn 0.536308 0.234268 0.810859
vn 0.536308 0.234268 0.810859
vn 0.536308 0.234268 0.810859
vn 0.741505 0.213135 0.636195
vn 0.741505 0.213135 0.636195
vn 0.741505 0.213135 0.636195
vn 0.741505 0.213134 0.636195
vn 0.741505 0.213134 0.636195
vn 0.741505 0.213134 0.636195
vn 0.740831 0.21321 0.636954
vn 0.740831 0.21321 0.636954
vn 0.740831 0.21321 0.636954
vn 0.740831 0.213211 0.636954
vn 0.740831 0.213211 0.636954
vn 0.740831 0.213211 0.636954
vn 0.846888 0.202389 0.491752
vn 0.846888 0.202389 0.491752
vn 0.846888 0.202389 0.491752
vn 0.846887 0.202391 0.491752
vn 0.846887 0.202391 0.491752
vn 0.846887 0.202391 0.491752
vn 0.887412 0.197852 0.416359
vn 0.887412 0.197852 0.416359
vn 0.887412 0.197852 0.416359
vn 0.887412 0.197852 0.416359
vn 0.887412 0.197852 0.416359
vn 0.887412 0.197852 0.416359
vn 0.83003 0.199617 0.520772
vn 0.83003 0.199617 0.520772
vn 0.83003 0.199617 0.520772
vn 0.83003 0.199616 0.520772
vn 0.83003 0.199616 0.520772
vn 0.83003 0.199616 0.520772
vn 0.926741 0.201976 0.316791
vn 0.926741 0.201976 0.316791
vn 0.926741 0.201976 0.316791
vn 0.926741 0.201975 0.316791
vn 0.926741 0.201975 0.316791
vn 0.926741 0.201975 0.316791
vn 0.96603 0.189755 -0.175441
vn 0.96603 0.189755 -0.175441
vn 0.96603 0.189755 -0.175441
vn 0.96603 0.189754 -0.175442
vn 0.96603 0.189754 -0.175442
vn 0.96603 0.189754 -0.175442
vn 0.933146 0.183294 -0.309261
vn 0.933146 0.183294 -0.309261
vn 0.933146 0.183294 -0.309261
vn 0.933146 0.183296 -0.30926
vn 0.933146 0.183296 -0.30926
vn 0.933146 0.183296 -0.30926
vn 0.982548 0.182288 -0.037024
vn 0.982548 0.182288 -0.037024
vn 0.982548 0.182288 -0.037024
vn 0.982548 0.182289 -0.037024
vn 0.982548 0.182289 -0.037024
vn 0.982548 0.182289 -0.037024
vn 0.978868 0.185346 -0.086397
vn 0.978868 0.185346 -0.086397
vn 0.978868 0.185346 -0.086397
vn 0.978868 0.185346 -0.086397
vn 0.978868 0.185346 -0.086397
vn 0.978868 0.185346 -0.086397
vn 0.87728 0.207391 -0.432862
vn 0.87728 0.207391 -0.432862
vn 0.87728 0.207391 -0.432862
vn 0.87728 0.207391 -0.432862
vn 0.87728 0.207391 -0.432862
vn 0.87728 0.207391 -0.432862
vn 0.773928 0.215048 -0.595643
vn 0.773928 0.215048 -0.595643
vn 0.773928 0.215048 -0.595643
vn 0.773928 0.215048 -0.595643
vn 0.773928 0.215048 -0.595643
vn 0.773928 0.215048 -0.595643
vn 0.695357 0.219843 -0.684214
vn 0.695357 0.219843 -0.684214
vn 0.695357 0.219843 -0.684214
vn 0.695357 0.219844 -0.684213
vn 0.695357 0.219844 -0.684213
vn 0.695357 0.219844 -0.684213
vn 0.414796 0.227305 -0.881066
vn 0.414796 0.227305 -0.881066
vn 0.414796 0.227305 -0.881066
vn 0.414796 0.227303 -0.881066
vn 0.414796 0.227303 -0.881066
vn 0.414796 0.227303 -0.881066
vn 0.357085 0.227678 -0.905899
vn 0.357085 0.227678 -0.905899
vn 0.357085 0.227678 -0.905899
vn 0.357085 0.227679 -0.905899
vn 0.357085 0.227679 -0.905899
vn 0.357085 0.227679 -0.905899
vn 0.610459 0.20998 -0.763707
vn 0.610459 0.20998 -0.763707
vn 0.610459 0.20998 -0.763707
vn 0.610459 0.209978 -0.763707
vn 0.610459 0.209978 -0.763707
vn 0.610459 0.209978 -0.763707
vn 0.391104 0.234713 -0.889914
vn 0.391104 0.234713 -0.889914
vn 0.391104 0.234713 -0.889914
vn 0.391105 0.234717 -0.889913
vn 0.391105 0.234717 -0.889913
vn 0.391105 0.234717 -0.889913
vn -0.391104 0.234717 -0.889913
vn -0.391104 0.234717 -0.889913
vn -0.391104 0.234717 -0.889913
vn -0.391105 0.234712 -0.889914
vn -0.391105 0.234712 -0.889914
vn -0.391105 0.234712 -0.889914
vn -0.610459 0.209978 -0.763708
vn -0.610459 0.209978 -0.763708
vn -0.610459 0.209978 -0.763708
vn -0.610459 0.20998 -0.763707
vn -0.610459 0.20998 -0.763707
vn -0.610459 0.20998 -0.763707
vn -0.357085 0.227679 -0.905899
vn -0.357085 0.227679 -0.905899
vn -0.357085 0.227679 -0.905899
vn -0.357086 0.227679 -0.905899
vn -0.357086 0.227679 -0.905899
vn -0.357086 0.227679 -0.905899
vn -0.414796 0.227303 -0.881066
vn -0.414796 0.227303 -0.881066
vn -0.414796 0.227303 -0.881066
vn -0.414796 0.227305 -0.881066
vn -0.414796 0.227305 -0.881066
vn -0.414796 0.227305 -0.881066
vn -0.695357 0.219844 -0.684213
vn -0.695357 0.219844 -0.684213
vn -0.695357 0.219844 -0.684213
vn -0.695357 0.219843 -0.684213
vn -0.695357 0.219843 -0.684213
vn -0.695357 0.219843 -0.684213
vn -0.773928 0.215048 -0.595642
vn -0.773928 0.215048 -0.595642
vn -0.773928 0.215048 -0.595642
vn -0.773928 0.215048 -0.595642
vn -0.773928 0.215048 -0.595642
vn -0.773928 0.215048 -0.595642
vn -0.87728 0.207391 -0.432861
vn -0.87728 0.207391 -0.432861
vn -0.87728 0.207391 -0.432861
vn -0.87728 0.207391 -0.432861
vn -0.87728 0.207391 -0.432861
vn -0.87728 0.207391 -0.432861
vn -0.978868 0.185346 -0.086396
vn -0.978868 0.185346 -0.086396
vn -0.978868 0.185346 -0.086396
vn -0.978868 0.185346 -0.086396
vn -0.978868 0.185346 -0.086396
vn -0.978868 0.185346 -0.086396
vn -0.982548 0.182289 -0.037025
vn -0.982548 0.182289 -0.037025
vn -0.982548 0.182289 -0.037025
vn -0.982548 0.182288 -0.037025
vn -0.982548 0.182288 -0.037025
vn -0.982548 0.182288 -0.037025
vn -0.933145 0.183296 -0.309261
vn -0.933145 0.183296 -0.309261
vn -0.933145 0.183296 -0.309261
vn -0.933145 0.183297 -0.309262
vn -0.933145 0.183297 -0.309262
vn -0.933145 0.183297 -0.309262
f 721//721 723//723 722//722
f 724//724 726//726 725//725
f 727//727 729//729 728//728
f 730//730 732//732 731//731
f 733//733 735//735 734//734
f 736//736 738//738 737//737
f 739//739 741//741 740//740
f 742//742 744//744 743//743
f 745//745 747//747 746//746
f 748//748 750//750 749//749
f 751//751 753//753 752//752
f 754//754 756//756 755//755
f 757//757 759//759 758//758
f 760//760 762//762 761//761
f 763//763 765//765 764//764
f 766//766 768//768 767//767
f 769//769 771//771 770//770
f 772//772 774//774 773//773
f 775//775 777//777 776//776
f 778//778 780//780 779//779
f 781//781 783//783 782//782
f 784//784 786//786 785//785
f 787//787 789//789 788//788
f 790//790 792//792 791//791
f 793//793 795//795 794//794
f 796//796 798//798 797//797
f 799//799 801//801 800//800
f 802//802 804//804 803//803
f 805//805 807//807 806//806
f 808//808 810//810 809//809
f 811//811 813//813 812//812
f 814//814 816//816 815//815
f 817//817 819//819 818//818
f 820//820 822//822 821//821
f 823//823 825//825 824//824
f 826//826 828//828 827//827
f 829//829 831//831 830//830
f 832//832 834//834 833//833
f 835//835 837//837 836//836
f 838//838 840//840 839//839
f 841//841 843//843 842//842
f 844//844 846//846 845//845
f 847//847 849//849 848//848
f 850//850 852//852 851//851
f 853//853 855//855 854//854
f 856//856 858//858 857//857
f 859//859 861//861 860//860
f 862//862 864//864 863//863
f 865//865 867//867 866//866
f 868//868 870//870 869//869
f 871//871 873//873 872//872
f 874//874 876//876 875//875
f 877//877 879//879 878//878
f 880//880 882//882 881//881
f 883//883 885//885 884//884
f 886//886 888//888 887//887
f 889//889 891//891 890//890
f 892//892 894//894 893//893
f 895//895 897//897 896//896
f 898//898 900//900 899//899
f 901//901 903//903 902//902
f 904//904 906//906 905//905
f 907//907 909//909 908//908
f 910//910 912//912 911//911
f 913//913 915//915 914//914
f 916//916 918//918 917//917
f 919//919 921//921 920//920
f 922//922 924//924 923//923
f 925//925 927//927 926//926
f 928//928 930//930 929//929
f 931//931 933//933 932//932
f 934//934 936//936 935//935
f 937//937 939//939 938//938
f 940//940 942//942 941//941
f 943//943 945//945 944//944
f 946//946 948//948 947//947
f 949//949 951//951 950//950
f 952//952 954//954 953//953
f 955//955 957//957 956//956
f 958//958 960//960 959//959
o Carved_cliff_4
usemtl Rim
v -11.11 -0.1 3
v -10.78 0 3
v -11.18964 0 5.25561
v -11.11 -0.1 3
v -11.18964 0 5.25561
v -11.53218 -0.1 5.32466
v -11.53218 -0.1 5.32466
v -11.18964 0 5.25561
v -10.47933 0 7.33356
v -11.53218 -0.1 5.32466
v -10.47933 0 7.33356
v -10.80012 -0.1 7.46622
v -10.80012 -0.1 7.46622
v -10.47933 0 7.33356
v -9.381298 0 9.08365
v -10.80012 -0.1 7.46622
v -9.381298 0 9.08365
v -9.66848 -0.1 9.269883
v -9.66848 -0.1 9.269883
v -9.381298 0 9.08365
v -8.533424 0 10.89078
v -9.66848 -0.1 9.269883
v -8.533424 0 10.89078
v -8.794652 -0.1 11.13233
v -8.794652 -0.1 11.13233
v -8.533424 0 10.89078
v -7.541761 0 12.59861
v -8.794652 -0.1 11.13233
v -7.541761 0 12.59861
v -7.772631 -0.1 12.89244
v -7.772631 -0.1 12.89244
v -7.541761 0 12.59861
v -6.302332 0 14.04017
v -7.772631 -0.1 12.89244
v -6.302332 0 14.04017
v -6.495261 -0.1 14.37813
v -6.495261 -0.1 14.37813
v -6.302332 0 14.04017
v -5.018763 0 15.53621
v -6.495261 -0.1 14.37813
v -5.018763 0 15.53621
v -5.172398 -0.1 15.91997
v -5.172398 -0.1 15.91997
v -5.018763 0 15.53621
v -3.463097 0 16.56513
v -5.172398 -0.1 15.91997
v -3.463097 0 16.56513
v -3.56911 -0.1 16.98039
v -3.56911 -0.1 16.98039
v -3.463097 0 16.56513
v -1.664843 0 16.37816
v -3.56911 -0.1 16.98039
v -1.664843 0 16.37816
v -1.715807 -0.1 16.78769
v -1.715807 -0.1 16.78769
v -1.664843 0 16.37816
v 0 0 15.9654
v -1.715807 -0.1 16.78769
v 0 0 15.9654
v 0 -0.1 16.3623
v 0 -0.1 16.3623
v 0 0 15.9654
v 1.664844 0 16.37816
v 0 -0.1 16.3623
v 1.664844 0 16.37816
v 1.715808 -0.1 16.78769
v 1.715808 -0.1 16.78769
v 1.664844 0 16.37816
v 3.463098 0 16.56513
v 1.715808 -0.1 16.78769
v 3.463098 0 16.56513
v 3.569111 -0.1 16.98039
v 3.569111 -0.1 16.98039
v 3.463098 0 16.56513
v 5.018764 0 15.5362
v 3.569111 -0.1 16.98039
v 5.018764 0 15.5362
v 5.172399 -0.1 15.91997
v 5.172399 -0.1 15.91997
v 5.018764 0 15.5362
v 6.302331 0 14.04017
v 5.172399 -0.1 15.91997
v 6.302331 0 14.04017
v 6.49526 -0.1 14.37813
v 6.49526 -0.1 14.37813
v 6.302331 0 14.04017
v 7.541761 0 12.59861
v 6.49526 -0.1 14.37813
v 7.541761 0 12.59861
v 7.772631 -0.1 12.89244
v 7.772631 -0.1 12.89244
v 7.541761 0 12.59861
v 8.533425 0 10.89078
v 7.772631 -0.1 12.89244
v 8.533425 0 10.89078
v 8.794652 -0.1 11.13233
v 8.794652 -0.1 11.13233
v 8.533425 0 10.89078
v 9.381299 0 9.083648
v 8.794652 -0.1 11.13233
v 9.381299 0 9.083648
v 9.668481 -0.1 9.269881
v 9.668481 -0.1 9.269881
v 9.381299 0 9.083648
v 10.47933 0 7.333558
v 9.668481 -0.1 9.269881
v 10.47933 0 7.333558
v 10.80013 -0.1 7.466218
v 10.80013 -0.1 7.466218
v 10.47933 0 7.333558
v 11.18964 0 5.25561
v 10.80013 -0.1 7.466218
v 11.18964 0 5.25561
v 11.53218 -0.1 5.324659
v 11.53218 -0.1 5.324659
v 11.18964 0 5.25561
v 10.78 0 2.999999
v 11.53218 -0.1 5.324659
v 10.78 0 2.999999
v 11.11 -0.1 2.999999
v 11.11 -0.1 2.999999
v 10.78 0 2.999999
v 10.10492 0 0.963047
v 11.11 -0.1 2.999999
v 10.10492 0 0.963047
v 10.41425 -0.1 0.900691
v 10.41425 -0.1 0.900691
v 10.10492 0 0.963047
v 10.02545 0 -1.145866
v 10.41425 -0.1 0.900691
v 10.02545 0 -1.145866
v 10.33235 -0.1 -1.27278
v 10.33235 -0.1 -1.27278
v 10.02545 0 -1.145866
v 9.828804 0 -3.373852
v 10.33235 -0.1 -1.27278
v 9.828804 0 -3.373852
v 10.12969 -0.1 -3.568969
v 10.12969 -0.1 -3.568969
v 9.828804 0 -3.373852
v 8.908981 0 -5.238052
v 10.12969 -0.1 -3.568969
v 8.908981 0 -5.238052
v 9.181705 -0.1 -5.490237
v 9.181705 -0.1 -5.490237
v 8.908981 0 -5.238052
v 7.703459 0 -6.804406
v 9.181705 -0.1 -5.490237
v 7.703459 0 -6.804406
v 7.939279 -0.1 -7.10454
v 7.939279 -0.1 -7.10454
v 7.703459 0 -6.804406
v 6.370316 0 -8.159262
v 7.939279 -0.1 -7.10454
v 6.370316 0 -8.159262
v 6.565325 -0.1 -8.500871
v 6.565325 -0.1 -8.500871
v 6.370316 0 -8.159262
v 4.769269 0 -8.913014
v 6.565325 -0.1 -8.500871
v 4.769269 0 -8.913014
v 4.915267 -0.1 -9.277699
v 4.915267 -0.1 -9.277699
v 4.769269 0 -8.913014
v 3.19931 0 -9.531857
v 4.915267 -0.1 -9.277699
v 3.19931 0 -9.531857
v 3.297248 -0.1 -9.915485
v 3.297248 -0.1 -9.915485
v 3.19931 0 -9.531857
v 1.707884 0 -10.72401
v 3.297248 -0.1 -9.915485
v 1.707884 0 -10.72401
v 1.760166 -0.1 -11.14413
v 1.760166 -0.1 -11.14413
v 1.707884 0 -10.72401
v 0 0 -11.4746
v 1.760166 -0.1 -11.14413
v 0 0 -11.4746
v 0 -0.1 -11.9177
v 0 -0.1 -11.9177
v 0 0 -11.4746
v -1.707884 0 -10.72401
v 0 -0.1 -11.9177
v -1.707884 0 -10.72401
v -1.760166 -0.1 -11.14413
v -1.760166 -0.1 -11.14413
v -1.707884 0 -10.72401
v -3.19931 0 -9.531858
v -1.760166 -0.1 -11.14413
v -3.19931 0 -9.531858
v -3.297248 -0.1 -9.915486
v -3.297248 -0.1 -9.915486
v -3.19931 0 -9.531858
v -4.769275 0 -8.913013
v -3.297248 -0.1 -9.915486
v -4.769275 0 -8.913013
v -4.915273 -0.1 -9.277697
v -4.915273 -0.1 -9.277697
v -4.769275 0 -8.913013
v -6.370321 0 -8.159259
v -4.915273 -0.1 -9.277697
v -6.370321 0 -8.159259
v -6.56533 -0.1 -8.500868
v -6.56533 -0.1 -8.500868
v -6.370321 0 -8.159259
v -7.703464 0 -6.804402
v -6.56533 -0.1 -8.500868
v -7.703464 0 -6.804402
v -7.939284 -0.1 -7.104537
v -7.939284 -0.1 -7.104537
v -7.703464 0 -6.804402
v -8.908985 0 -5.238047
v -7.939284 -0.1 -7.104537
v -8.908985 0 -5.238047
v -9.181709 -0.1 -5.490232
v -9.181709 -0.1 -5.490232
v -8.908985 0 -5.238047
v -9.828804 0 -3.373851
v -9.181709 -0.1 -5.490232
v -9.828804 0 -3.373851
v -10.12969 -0.1 -3.568969
v -10.12969 -0.1 -3.568969
v -9.828804 0 -3.373851
v -10.02545 0 -1.145865
v -10.12969 -0.1 -3.568969
v -10.02545 0 -1.145865
v -10.33235 -0.1 -1.272779
v -10.33235 -0.1 -1.272779
v -10.02545 0 -1.145865
v -10.10492 0 0.96305
v -10.33235 -0.1 -1.272779
v -10.10492 0 0.96305
v -10.41425 -0.1 0.900694
v -10.41425 -0.1 0.900694
v -10.10492 0 0.96305
v -10.78 0 3.000002
v -10.41425 -0.1 0.900694
v -10.78 0 3.000002
v -11.11 -0.1 3.000002
vn -0.289607 0.9557 -0.052595
vn -0.289607 0.9557 -0.052595
vn -0.289607 0.9557 -0.052595
vn -0.289606 0.9557 -0.052595
vn -0.289606 0.9557 -0.052595
vn -0.289606 0.9557 -0.052595
vn -0.262406 0.96078 0.089699
vn -0.262406 0.96078 0.089699
vn -0.262406 0.96078 0.089699
vn -0.262406 0.96078 0.089699
vn -0.262406 0.96078 0.089699
vn -0.262406 0.96078 0.089699
vn -0.237574 0.959865 0.149057
vn -0.237574 0.959865 0.149057
vn -0.237574 0.959865 0.149057
vn -0.237574 0.959865 0.149058
vn -0.237574 0.959865 0.149058
vn -0.237574 0.959865 0.149058
vn -0.256077 0.959161 0.120147
vn -0.256077 0.959161 0.120147
vn -0.256077 0.959161 0.120147
vn -0.256076 0.959161 0.120147
vn -0.256076 0.959161 0.120147
vn -0.256076 0.959161 0.120147
vn -0.239344 0.960937 0.138977
vn -0.239344 0.960937 0.138977
vn -0.239344 0.960937 0.138977
vn -0.239344 0.960937 0.138977
vn -0.239344 0.960937 0.138977
vn -0.239344 0.960937 0.138977
vn -0.199534 0.964756 0.171556
vn -0.199534 0.964756 0.171556
vn -0.199534 0.964756 0.171556
vn -0.199534 0.964756 0.171556
vn -0.199534 0.964756 0.171556
vn -0.199534 0.964756 0.171556
vn -0.199781 0.964732 0.171408
vn -0.199781 0.964732 0.171408
vn -0.199781 0.964732 0.171408
vn -0.199781 0.964732 0.171408
vn -0.199781 0.964732 0.171408
vn -0.199781 0.964732 0.171408
vn -0.13229 0.970821 0.200014
vn -0.13229 0.970821 0.200014
vn -0.13229 0.970821 0.200014
vn -0.132291 0.970821 0.200014
vn -0.132291 0.970821 0.200014
vn -0.132291 0.970821 0.200014
vn 0.024961 0.970435 0.240067
vn 0.024961 0.970435 0.240067
vn 0.024961 0.970435 0.240067
vn 0.024961 0.970436 0.240066
vn 0.024961 0.970436 0.240066
vn 0.024961 0.970436 0.240066
vn 0.060462 0.967921 0.24387
vn 0.060462 0.967921 0.24387
vn 0.060462 0.967921 0.24387
vn 0.060462 0.967921 0.243871
vn 0.060462 0.967921 0.243871
vn 0.060462 0.967921 0.243871
vn -0.060462 0.967921 0.243871
vn -0.060462 0.967921 0.243871
vn -0.060462 0.967921 0.243871
vn -0.060462 0.967921 0.24387
vn -0.060462 0.967921 0.24387
vn -0.060462 0.967921 0.24387
vn -0.024961 0.970436 0.240066
vn -0.024961 0.970436 0.240066
vn -0.024961 0.970436 0.240066
vn -0.024961 0.970435 0.240067
vn -0.024961 0.970435 0.240067
vn -0.024961 0.970435 0.240067
vn 0.132291 0.970821 0.200014
vn 0.132291 0.970821 0.200014
vn 0.132291 0.970821 0.200014
vn 0.13229 0.970821 0.200014
vn 0.13229 0.970821 0.200014
vn 0.13229 0.970821 0.200014
vn 0.199781 0.964732 0.171408
vn 0.199781 0.964732 0.171408
vn 0.199781 0.964732 0.171408
vn 0.199781 0.964732 0.171408
vn 0.199781 0.964732 0.171408
vn 0.199781 0.964732 0.171408
vn 0.199534 0.964756 0.171556
vn 0.199534 0.964756 0.171556
vn 0.199534 0.964756 0.171556
vn 0.199534 0.964756 0.171556
vn 0.199534 0.964756 0.171556
vn 0.199534 0.964756 0.171556
vn 0.239344 0.960937 0.138977
vn 0.239344 0.960937 0.138977
vn 0.239344 0.960937 0.138977
vn 0.239345 0.960937 0.138977
vn 0.239345 0.960937 0.138977
vn 0.239345 0.960937 0.138977
vn 0.256077 0.959161 0.120147
vn 0.256077 0.959161 0.120147
vn 0.256077 0.959161 0.120147
vn 0.256077 0.959161 0.120147
vn 0.256077 0.959161 0.120147
vn 0.256077 0.959161 0.120147
vn 0.237574 0.959865 0.149057
vn 0.237574 0.959865 0.149057
vn 0.237574 0.959865 0.149057
vn 0.237574 0.959865 0.149057
vn 0.237574 0.959865 0.149057
vn 0.237574 0.959865 0.149057
vn 0.262406 0.96078 0.089699
vn 0.262406 0.96078 0.089699
vn 0.262406 0.96078 0.089699
vn 0.262406 0.96078 0.089699
vn 0.262406 0.96078 0.089699
vn 0.262406 0.96078 0.089699
vn 0.289606 0.9557 -0.052596
vn 0.289606 0.9557 -0.052596
vn 0.289606 0.9557 -0.052596
vn 0.289606 0.9557 -0.052596
vn 0.289606 0.9557 -0.052596
vn 0.289606 0.9557 -0.052596
vn 0.288677 0.952634 -0.095673
vn 0.288677 0.952634 -0.095673
vn 0.288677 0.952634 -0.095673
vn 0.288678 0.952634 -0.095673
vn 0.288678 0.952634 -0.095673
vn 0.288678 0.952634 -0.095673
vn 0.30548 0.952129 -0.011511
vn 0.30548 0.952129 -0.011511
vn 0.30548 0.952129 -0.011511
vn 0.30548 0.952129 -0.011511
vn 0.30548 0.952129 -0.011511
vn 0.30548 0.952129 -0.011511
vn 0.29979 0.953638 -0.02646
vn 0.29979 0.953638 -0.02646
vn 0.29979 0.953638 -0.02646
vn 0.299789 0.953638 -0.02646
vn 0.299789 0.953638 -0.02646
vn 0.299789 0.953638 -0.02646
vn 0.242417 0.962771 -0.119612
vn 0.242417 0.962771 -0.119612
vn 0.242417 0.962771 -0.119612
vn 0.242417 0.962771 -0.119612
vn 0.242417 0.962771 -0.119612
vn 0.242417 0.962771 -0.119612
vn 0.206796 0.965352 -0.159157
vn 0.206796 0.965352 -0.159157
vn 0.206796 0.965352 -0.159157
vn 0.206796 0.965352 -0.159158
vn 0.206796 0.965352 -0.159158
vn 0.206796 0.965352 -0.159158
vn 0.18203 0.966842 -0.179113
vn 0.18203 0.966842 -0.179113
vn 0.18203 0.966842 -0.179113
vn 0.18203 0.966842 -0.179113
vn 0.18203 0.966842 -0.179113
vn 0.18203 0.966842 -0.179113
vn 0.105254 0.968988 -0.22357
vn 0.105254 0.968988 -0.22357
vn 0.105254 0.968988 -0.22357
vn 0.105254 0.968989 -0.223569
vn 0.105254 0.968989 -0.223569
vn 0.105254 0.968989 -0.223569
vn 0.09047 0.969091 -0.229516
vn 0.09047 0.969091 -0.229516
vn 0.09047 0.969091 -0.229516
vn 0.09047 0.969091 -0.229516
vn 0.09047 0.969091 -0.229516
vn 0.09047 0.969091 -0.229516
vn 0.166763 0.963673 -0.208626
vn 0.166763 0.963673 -0.208626
vn 0.166763 0.963673 -0.208626
vn 0.166763 0.963673 -0.208626
vn 0.166763 0.963673 -0.208626
vn 0.166763 0.963673 -0.208626
vn 0.096301 0.970933 -0.219123
vn 0.096301 0.970933 -0.219123
vn 0.096301 0.970933 -0.219123
vn 0.096301 0.970933 -0.219123
vn 0.096301 0.970933 -0.219123
vn 0.096301 0.970933 -0.219123
vn -0.096302 0.970933 -0.219123
vn -0.096302 0.970933 -0.219123
vn -0.096302 0.970933 -0.219123
vn -0.096301 0.970933 -0.219123
vn -0.096301 0.970933 -0.219123
vn -0.096301 0.970933 -0.219123
vn -0.166763 0.963673 -0.208626
vn -0.166763 0.963673 -0.208626
vn -0.166763 0.963673 -0.208626
vn -0.166763 0.963673 -0.208626
vn -0.166763 0.963673 -0.208626
vn -0.166763 0.963673 -0.208626
vn -0.09047 0.969091 -0.229516
vn -0.09047 0.969091 -0.229516
vn -0.09047 0.969091 -0.229516
vn -0.09047 0.969091 -0.229516
vn -0.09047 0.969091 -0.229516
vn -0.09047 0.969091 -0.229516
vn -0.105254 0.968989 -0.223569
vn -0.105254 0.968989 -0.223569
vn -0.105254 0.968989 -0.223569
vn -0.105254 0.968988 -0.223569
vn -0.105254 0.968988 -0.223569
vn -0.105254 0.968988 -0.223569
vn -0.18203 0.966842 -0.179113
vn -0.18203 0.966842 -0.179113
vn -0.18203 0.966842 -0.179113
vn -0.18203 0.966842 -0.179113
vn -0.18203 0.966842 -0.179113
vn -0.18203 0.966842 -0.179113
vn -0.206796 0.965352 -0.159157
vn -0.206796 0.965352 -0.159157
vn -0.206796 0.965352 -0.159157
vn -0.206796 0.965352 -0.159157
vn -0.206796 0.965352 -0.159157
vn -0.206796 0.965352 -0.159157
vn -0.242417 0.962771 -0.119612
vn -0.242417 0.962771 -0.119612
vn -0.242417 0.962771 -0.119612
vn -0.242417 0.962771 -0.119612
vn -0.242417 0.962771 -0.119612
vn -0.242417 0.962771 -0.119612
vn -0.299789 0.953638 -0.02646
vn -0.299789 0.953638 -0.02646
vn -0.299789 0.953638 -0.02646
vn -0.29979 0.953638 -0.02646
vn -0.29979 0.953638 -0.02646
vn -0.29979 0.953638 -0.02646
vn -0.30548 0.952129 -0.011511
vn -0.30548 0.952129 -0.011511
vn -0.30548 0.952129 -0.011511
vn -0.305479 0.952129 -0.011511
vn -0.305479 0.952129 -0.011511
vn -0.305479 0.952129 -0.011511
vn -0.288678 0.952634 -0.095673
vn -0.288678 0.952634 -0.095673
vn -0.288678 0.952634 -0.095673
vn -0.288677 0.952634 -0.095673
vn -0.288677 0.952634 -0.095673
vn -0.288677 0.952634 -0.095673
f 961//961 963//963 962//962
f 964//964 966//966 965//965
f 967//967 969//969 968//968
f 970//970 972//972 971//971
f 973//973 975//975 974//974
f 976//976 978//978 977//977
f 979//979 981//981 980//980
f 982//982 984//984 983//983
f 985//985 987//987 986//986
f 988//988 990//990 989//989
f 991//991 993//993 992//992
f 994//994 996//996 995//995
f 997//997 999//999 998//998
f 1000//1000 1002//1002 1001//1001
f 1003//1003 1005//1005 1004//1004
f 1006//1006 1008//1008 1007//1007
f 1009//1009 1011//1011 1010//1010
f 1012//1012 1014//1014 1013//1013
f 1015//1015 1017//1017 1016//1016
f 1018//1018 1020//1020 1019//1019
f 1021//1021 1023//1023 1022//1022
f 1024//1024 1026//1026 1025//1025
f 1027//1027 1029//1029 1028//1028
f 1030//1030 1032//1032 1031//1031
f 1033//1033 1035//1035 1034//1034
f 1036//1036 1038//1038 1037//1037
f 1039//1039 1041//1041 1040//1040
f 1042//1042 1044//1044 1043//1043
f 1045//1045 1047//1047 1046//1046
f 1048//1048 1050//1050 1049//1049
f 1051//1051 1053//1053 1052//1052
f 1054//1054 1056//1056 1055//1055
f 1057//1057 1059//1059 1058//1058
f 1060//1060 1062//1062 1061//1061
f 1063//1063 1065//1065 1064//1064
f 1066//1066 1068//1068 1067//1067
f 1069//1069 1071//1071 1070//1070
f 1072//1072 1074//1074 1073//1073
f 1075//1075 1077//1077 1076//1076
f 1078//1078 1080//1080 1079//1079
f 1081//1081 1083//1083 1082//1082
f 1084//1084 1086//1086 1085//1085
f 1087//1087 1089//1089 1088//1088
f 1090//1090 1092//1092 1091//1091
f 1093//1093 1095//1095 1094//1094
f 1096//1096 1098//1098 1097//1097
f 1099//1099 1101//1101 1100//1100
f 1102//1102 1104//1104 1103//1103
f 1105//1105 1107//1107 1106//1106
f 1108//1108 1110//1110 1109//1109
f 1111//1111 1113//1113 1112//1112
f 1114//1114 1116//1116 1115//1115
f 1117//1117 1119//1119 1118//1118
f 1120//1120 1122//1122 1121//1121
f 1123//1123 1125//1125 1124//1124
f 1126//1126 1128//1128 1127//1127
f 1129//1129 1131//1131 1130//1130
f 1132//1132 1134//1134 1133//1133
f 1135//1135 1137//1137 1136//1136
f 1138//1138 1140//1140 1139//1139
f 1141//1141 1143//1143 1142//1142
f 1144//1144 1146//1146 1145//1145
f 1147//1147 1149//1149 1148//1148
f 1150//1150 1152//1152 1151//1151
f 1153//1153 1155//1155 1154//1154
f 1156//1156 1158//1158 1157//1157
f 1159//1159 1161//1161 1160//1160
f 1162//1162 1164//1164 1163//1163
f 1165//1165 1167//1167 1166//1166
f 1168//1168 1170//1170 1169//1169
f 1171//1171 1173//1173 1172//1172
f 1174//1174 1176//1176 1175//1175
f 1177//1177 1179//1179 1178//1178
f 1180//1180 1182//1182 1181//1181
f 1183//1183 1185//1185 1184//1184
f 1186//1186 1188//1188 1187//1187
f 1189//1189 1191//1191 1190//1190
f 1192//1192 1194//1194 1193//1193
f 1195//1195 1197//1197 1196//1196
f 1198//1198 1200//1200 1199//1199
o Soft_grass_floor
usemtl Grass
v 0 0 3
v -11.18964 0 5.25561
v -10.78 0 3
v 0 0 3
v -10.47933 0 7.33356
v -11.18964 0 5.25561
v 0 0 3
v -9.381298 0 9.08365
v -10.47933 0 7.33356
v 0 0 3
v -8.533425 0 10.89078
v -9.381298 0 9.08365
v 0 0 3
v -7.541761 0 12.59861
v -8.533425 0 10.89078
v 0 0 3
v -6.302332 0 14.04017
v -7.541761 0 12.59861
v 0 0 3
v -5.018763 0 15.53621
v -6.302332 0 14.04017
v 0 0 3
v -3.463098 0 16.56513
v -5.018763 0 15.53621
v 0 0 3
v -1.664843 0 16.37816
v -3.463098 0 16.56513
v 0 0 3
v 0 0 15.9654
v -1.664843 0 16.37816
v 0 0 3
v 1.664844 0 16.37816
v 0 0 15.9654
v 0 0 3
v 3.463098 0 16.56513
v 1.664844 0 16.37816
v 0 0 3
v 5.018764 0 15.53621
v 3.463098 0 16.56513
v 0 0 3
v 6.302332 0 14.04017
v 5.018764 0 15.53621
v 0 0 3
v 7.541761 0 12.59861
v 6.302332 0 14.04017
v 0 0 3
v 8.533425 0 10.89078
v 7.541761 0 12.59861
v 0 0 3
v 9.381298 0 9.083648
v 8.533425 0 10.89078
v 0 0 3
v 10.47933 0 7.333558
v 9.381298 0 9.083648
v 0 0 3
v 11.18964 0 5.25561
v 10.47933 0 7.333558
v 0 0 3
v 10.78 0 2.999999
v 11.18964 0 5.25561
v 0 0 3
v 10.10492 0 0.963047
v 10.78 0 2.999999
v 0 0 3
v 10.02545 0 -1.145866
v 10.10492 0 0.963047
v 0 0 3
v 9.828803 0 -3.373851
v 10.02545 0 -1.145866
v 0 0 3
v 8.908981 0 -5.238052
v 9.828803 0 -3.373851
v 0 0 3
v 7.70346 0 -6.804407
v 8.908981 0 -5.238052
v 0 0 3
v 6.370316 0 -8.159262
v 7.70346 0 -6.804407
v 0 0 3
v 4.769269 0 -8.913014
v 6.370316 0 -8.159262
v 0 0 3
v 3.19931 0 -9.531858
v 4.769269 0 -8.913014
v 0 0 3
v 1.707884 0 -10.72401
v 3.19931 0 -9.531858
v 0 0 3
v 0 0 -11.4746
v 1.707884 0 -10.72401
v 0 0 3
v -1.707884 0 -10.72401
v 0 0 -11.4746
v 0 0 3
v -3.19931 0 -9.531858
v -1.707884 0 -10.72401
v 0 0 3
v -4.769275 0 -8.913012
v -3.19931 0 -9.531858
v 0 0 3
v -6.370321 0 -8.159259
v -4.769275 0 -8.913012
v 0 0 3
v -7.703464 0 -6.804401
v -6.370321 0 -8.159259
v 0 0 3
v -8.908984 0 -5.238047
v -7.703464 0 -6.804401
v 0 0 3
v -9.828803 0 -3.373851
v -8.908984 0 -5.238047
v 0 0 3
v -10.02545 0 -1.145865
v -9.828803 0 -3.373851
v 0 0 3
v -10.10492 0 0.96305
v -10.02545 0 -1.145865
v 0 0 3
v -10.78 0 3.000002
v -10.10492 0 0.96305
vn 0 1 0
vn 0 1 0
vn 0 1 0
vn 0 1 0
vn 0 1 0
vn 0 1 0
vn 0 1 0
vn 0 1 0
vn 0 1 0
vn 0 1 0
vn 0 1 0
vn 0 1 0
vn 0 1 0
vn 0 1 0
vn 0 1 0
vn 0 1 0
vn 0 1 0
vn 0 1 0
vn 0 1 0
vn 0 1 0
vn 0 1 0
vn 0 1 0
vn 0 1 0
vn 0 1 0
vn 0 1 0
vn 0 1 0
vn 0 1 0
vn 0 1 0
vn 0 1 0
vn 0 1 0
vn 0 1 0
vn 0 1 0
vn 0 1 0
vn 0 1 0
vn 0 1 0
vn 0 1 0
vn 0 1 0
vn 0 1 0
vn 0 1 0
vn 0 1 0
vn 0 1 0
vn 0 1 0
vn 0 1 0
vn 0 1 0
vn 0 1 0
vn 0 1 0
vn 0 1 0
vn 0 1 0
vn 0 1 0
vn 0 1 0
vn 0 1 0
vn 0 1 0
vn 0 1 0
vn 0 1 0
vn 0 1 0
vn 0 1 0
vn 0 1 0
vn 0 1 0
vn 0 1 0
vn 0 1 0
vn 0 1 0
vn 0 1 0
vn 0 1 0
vn 0 1 0
vn 0 1 0
vn 0 1 0
vn 0 1 0
vn 0 1 0
vn 0 1 0
vn 0 1 0
vn 0 1 0
vn 0 1 0
vn 0 1 0
vn 0 1 0
vn 0 1 0
vn 0 1 0
vn 0 1 0
vn 0 1 0
vn 0 1 0
vn 0 1 0
vn 0 1 0
vn 0 1 0
vn 0 1 0
vn 0 1 0
vn 0 1 0
vn 0 1 0
vn 0 1 0
vn 0 1 0
vn 0 1 0
vn 0 1 0
vn 0 1 0
vn 0 1 0
vn 0 1 0
vn 0 1 0
vn 0 1 0
vn 0 1 0
vn 0 1 0
vn 0 1 0
vn 0 1 0
vn 0 1 0
vn 0 1 0
vn 0 1 0
vn 0 1 0
vn 0 1 0
vn 0 1 0
vn 0 1 0
vn 0 1 0
vn 0 1 0
vn 0 1 0
vn 0 1 0
vn 0 1 0
vn 0 1 0
vn 0 1 0
vn 0 1 0
vn 0 1 0
vn 0 1 0
vn 0 1 0
vn 0 1 0
vn 0 1 0
vn 0 1 0
f 1201//1201 1203//1203 1202//1202
f 1204//1204 1206//1206 1205//1205
f 1207//1207 1209//1209 1208//1208
f 1210//1210 1212//1212 1211//1211
f 1213//1213 1215//1215 1214//1214
f 1216//1216 1218//1218 1217//1217
f 1219//1219 1221//1221 1220//1220
f 1222//1222 1224//1224 1223//1223
f 1225//1225 1227//1227 1226//1226
f 1228//1228 1230//1230 1229//1229
f 1231//1231 1233//1233 1232//1232
f 1234//1234 1236//1236 1235//1235
f 1237//1237 1239//1239 1238//1238
f 1240//1240 1242//1242 1241//1241
f 1243//1243 1245//1245 1244//1244
f 1246//1246 1248//1248 1247//1247
f 1249//1249 1251//1251 1250//1250
f 1252//1252 1254//1254 1253//1253
f 1255//1255 1257//1257 1256//1256
f 1258//1258 1260//1260 1259//1259
f 1261//1261 1263//1263 1262//1262
f 1264//1264 1266//1266 1265//1265
f 1267//1267 1269//1269 1268//1268
f 1270//1270 1272//1272 1271//1271
f 1273//1273 1275//1275 1274//1274
f 1276//1276 1278//1278 1277//1277
f 1279//1279 1281//1281 1280//1280
f 1282//1282 1284//1284 1283//1283
f 1285//1285 1287//1287 1286//1286
f 1288//1288 1290//1290 1289//1289
f 1291//1291 1293//1293 1292//1292
f 1294//1294 1296//1296 1295//1295
f 1297//1297 1299//1299 1298//1298
f 1300//1300 1302//1302 1301//1301
f 1303//1303 1305//1305 1304//1304
f 1306//1306 1308//1308 1307//1307
f 1309//1309 1311//1311 1310//1310
f 1312//1312 1314//1314 1313//1313
f 1315//1315 1317//1317 1316//1316
f 1318//1318 1320//1320 1319//1319
o Underside_stone
usemtl Rock
v 0 -4.6 3
v -8.36 -4.6 3
v -8.677682 -4.6 4.749249
v 0 -4.6 3
v -8.677682 -4.6 4.749249
v -8.126826 -4.6 6.36072
v 0 -4.6 3
v -8.126826 -4.6 6.36072
v -7.275291 -4.6 7.717932
v 0 -4.6 3
v -7.275291 -4.6 7.717932
v -6.617758 -4.6 9.119378
v 0 -4.6 3
v -6.617758 -4.6 9.119378
v -5.848713 -4.6 10.44382
v 0 -4.6 3
v -5.848713 -4.6 10.44382
v -4.887523 -4.6 11.56176
v 0 -4.6 3
v -4.887523 -4.6 11.56176
v -3.892102 -4.6 12.72196
v 0 -4.6 3
v -3.892102 -4.6 12.72196
v -2.685667 -4.6 13.5199
v 0 -4.6 3
v -2.685667 -4.6 13.5199
v -1.291103 -4.6 13.3749
v 0 -4.6 3
v -1.291103 -4.6 13.3749
v 0 -4.6 13.0548
v 0 -4.6 3
v 0 -4.6 13.0548
v 1.291103 -4.6 13.3749
v 0 -4.6 3
v 1.291103 -4.6 13.3749
v 2.685668 -4.6 13.5199
v 0 -4.6 3
v 2.685668 -4.6 13.5199
v 3.892102 -4.6 12.72195
v 0 -4.6 3
v 3.892102 -4.6 12.72195
v 4.887522 -4.6 11.56176
v 0 -4.6 3
v 4.887522 -4.6 11.56176
v 5.848712 -4.6 10.44382
v 0 -4.6 3
v 5.848712 -4.6 10.44382
v 6.617759 -4.6 9.119377
v 0 -4.6 3
v 6.617759 -4.6 9.119377
v 7.275292 -4.6 7.71793
v 0 -4.6 3
v 7.275292 -4.6 7.71793
v 8.126827 -4.6 6.360718
v 0 -4.6 3
v 8.126827 -4.6 6.360718
v 8.677682 -4.6 4.749249
v 0 -4.6 3
v 8.677682 -4.6 4.749249
v 8.36 -4.6 2.999999
v 0 -4.6 3
v 8.36 -4.6 2.999999
v 7.836467 -4.6 1.420322
v 0 -4.6 3
v 7.836467 -4.6 1.420322
v 7.774838 -4.6 -0.215161
v 0 -4.6 3
v 7.774838 -4.6 -0.215161
v 7.622337 -4.6 -1.942987
v 0 -4.6 3
v 7.622337 -4.6 -1.942987
v 6.909006 -4.6 -3.388693
v 0 -4.6 3
v 6.909006 -4.6 -3.388693
v 5.974111 -4.6 -4.603417
v 0 -4.6 3
v 5.974111 -4.6 -4.603417
v 4.940245 -4.6 -5.654121
v 0 -4.6 3
v 4.940245 -4.6 -5.654121
v 3.698617 -4.6 -6.238664
v 0 -4.6 3
v 3.698617 -4.6 -6.238664
v 2.481097 -4.6 -6.718583
v 0 -4.6 3
v 2.481097 -4.6 -6.718583
v 1.324481 -4.6 -7.643108
v 0 -4.6 3
v 1.324481 -4.6 -7.643108
v 0 -4.6 -8.225201
v 0 -4.6 3
v 0 -4.6 -8.225201
v -1.324481 -4.6 -7.643108
v 0 -4.6 3
v -1.324481 -4.6 -7.643108
v -2.481098 -4.6 -6.718584
v 0 -4.6 3
v -2.481098 -4.6 -6.718584
v -3.698621 -4.6 -6.238662
v 0 -4.6 3
v -3.698621 -4.6 -6.238662
v -4.940248 -4.6 -5.654119
v 0 -4.6 3
v -4.940248 -4.6 -5.654119
v -5.974115 -4.6 -4.603414
v 0 -4.6 3
v -5.974115 -4.6 -4.603414
v -6.909009 -4.6 -3.388689
v 0 -4.6 3
v -6.909009 -4.6 -3.388689
v -7.622337 -4.6 -1.942986
v 0 -4.6 3
v -7.622337 -4.6 -1.942986
v -7.774838 -4.6 -0.215161
v 0 -4.6 3
v -7.774838 -4.6 -0.215161
v -7.836468 -4.6 1.420324
v 0 -4.6 3
v -7.836468 -4.6 1.420324
v -8.360002 -4.6 3.000002
vn 0 -1 0
vn 0 -1 0
vn 0 -1 0
vn 0 -1 0
vn 0 -1 0
vn 0 -1 0
vn 0 -1 0
vn 0 -1 0
vn 0 -1 0
vn 0 -1 0
vn 0 -1 0
vn 0 -1 0
vn 0 -1 0
vn 0 -1 0
vn 0 -1 0
vn 0 -1 0
vn 0 -1 0
vn 0 -1 0
vn 0 -1 0
vn 0 -1 0
vn 0 -1 0
vn 0 -1 0
vn 0 -1 0
vn 0 -1 0
vn 0 -1 0
vn 0 -1 0
vn 0 -1 0
vn 0 -1 0
vn 0 -1 0
vn 0 -1 0
vn 0 -1 0
vn 0 -1 0
vn 0 -1 0
vn 0 -1 0
vn 0 -1 0
vn 0 -1 0
vn 0 -1 0
vn 0 -1 0
vn 0 -1 0
vn 0 -1 0
vn 0 -1 0
vn 0 -1 0
vn 0 -1 0
vn 0 -1 0
vn 0 -1 0
vn 0 -1 0
vn 0 -1 0
vn 0 -1 0
vn 0 -1 0
vn 0 -1 0
vn 0 -1 0
vn 0 -1 0
vn 0 -1 0
vn 0 -1 0
vn 0 -1 0
vn 0 -1 0
vn 0 -1 0
vn 0 -1 0
vn 0 -1 0
vn 0 -1 0
vn 0 -1 0
vn 0 -1 0
vn 0 -1 0
vn 0 -1 0
vn 0 -1 0
vn 0 -1 0
vn 0 -1 0
vn 0 -1 0
vn 0 -1 0
vn 0 -1 0
vn 0 -1 0
vn 0 -1 0
vn 0 -1 0
vn 0 -1 0
vn 0 -1 0
vn 0 -1 0
vn 0 -1 0
vn 0 -1 0
vn 0 -1 0
vn 0 -1 0
vn 0 -1 0
vn 0 -1 0
vn 0 -1 0
vn 0 -1 0
vn 0 -1 0
vn 0 -1 0
vn 0 -1 0
vn 0 -1 0
vn 0 -1 0
vn 0 -1 0
vn 0 -1 0
vn 0 -1 0
vn 0 -1 0
vn 0 -1 0
vn 0 -1 0
vn 0 -1 0
vn 0 -1 0
vn 0 -1 0
vn 0 -1 0
vn 0 -1 0
vn 0 -1 0
vn 0 -1 0
vn 0 -1 0
vn 0 -1 0
vn 0 -1 0
vn 0 -1 0
vn 0 -1 0
vn 0 -1 0
vn 0 -1 0
vn 0 -1 0
vn 0 -1 0
vn 0 -1 0
vn 0 -1 0
vn 0 -1 0
vn 0 -1 0
vn 0 -1 0
vn 0 -1 0
vn 0 -1 0
vn 0 -1 0
vn 0 -1 0
f 1321//1321 1323//1323 1322//1322
f 1324//1324 1326//1326 1325//1325
f 1327//1327 1329//1329 1328//1328
f 1330//1330 1332//1332 1331//1331
f 1333//1333 1335//1335 1334//1334
f 1336//1336 1338//1338 1337//1337
f 1339//1339 1341//1341 1340//1340
f 1342//1342 1344//1344 1343//1343
f 1345//1345 1347//1347 1346//1346
f 1348//1348 1350//1350 1349//1349
f 1351//1351 1353//1353 1352//1352
f 1354//1354 1356//1356 1355//1355
f 1357//1357 1359//1359 1358//1358
f 1360//1360 1362//1362 1361//1361
f 1363//1363 1365//1365 1364//1364
f 1366//1366 1368//1368 1367//1367
f 1369//1369 1371//1371 1370//1370
f 1372//1372 1374//1374 1373//1373
f 1375//1375 1377//1377 1376//1376
f 1378//1378 1380//1380 1379//1379
f 1381//1381 1383//1383 1382//1382
f 1384//1384 1386//1386 1385//1385
f 1387//1387 1389//1389 1388//1388
f 1390//1390 1392//1392 1391//1391
f 1393//1393 1395//1395 1394//1394
f 1396//1396 1398//1398 1397//1397
f 1399//1399 1401//1401 1400//1400
f 1402//1402 1404//1404 1403//1403
f 1405//1405 1407//1407 1406//1406
f 1408//1408 1410//1410 1409//1409
f 1411//1411 1413//1413 1412//1412
f 1414//1414 1416//1416 1415//1415
f 1417//1417 1419//1419 1418//1418
f 1420//1420 1422//1422 1421//1421
f 1423//1423 1425//1425 1424//1424
f 1426//1426 1428//1428 1427//1427
f 1429//1429 1431//1431 1430//1430
f 1432//1432 1434//1434 1433//1433
f 1435//1435 1437//1437 1436//1436
f 1438//1438 1440//1440 1439//1439
